<svg width="67" height="75" viewBox="0 0 67 75" fill="none" xmlns="http://www.w3.org/2000/svg">
<path d="M53.6274 0C46.2782 0 40.3018 5.98023 40.3018 13.3332V19.7521C37.5411 20.7595 35.5616 23.4027 35.5616 26.5072C35.5616 30.4738 38.7887 33.7022 42.7528 33.7022C46.7181 33.7022 49.9452 30.4738 49.9452 26.5072C49.9452 23.4027 47.9657 20.757 45.205 19.7521V13.3332C45.205 8.68783 48.9808 4.90705 53.6312 4.90705C58.2753 4.90705 62.0548 8.68783 62.0548 13.3332V43.8575C62.0548 48.1452 59.2461 50.7378 56.6182 51.7326C53.9915 52.7287 50.169 52.6503 47.3274 49.4421L23.3015 22.3017C19.5966 18.1189 13.8275 16.6956 8.60187 18.6764C3.37755 20.6597 0 25.5528 0 31.1424V61.6668C0 69.0185 5.97897 75 13.3282 75C20.6774 75 26.6525 69.0185 26.6525 61.6668V55.2378C29.4132 54.2304 31.394 51.5885 31.394 48.4827C31.394 44.5161 28.1669 41.2877 24.2015 41.2877C20.2362 41.2877 17.0091 44.5161 17.0091 48.4827C17.0091 51.5885 18.9899 54.2329 21.7505 55.2378V61.6668C21.7505 66.3122 17.9736 70.0929 13.3307 70.0929C8.68657 70.0929 4.90705 66.3122 4.90705 61.6668V31.1424C4.90705 26.8548 7.71577 24.2622 10.3437 23.2636C12.9704 22.2688 16.7904 22.3446 19.6345 25.5541L43.6629 52.6945C47.3678 56.8811 53.137 58.3044 58.3625 56.3211C63.5894 54.3378 66.9644 49.4472 66.9644 43.855V13.3332C66.9594 5.98023 60.9804 0 53.6274 0ZM42.7528 28.7951C41.4912 28.7951 40.4661 27.7687 40.4661 26.5072C40.4661 25.2456 41.4912 24.2192 42.7528 24.2192C44.0143 24.2192 45.0407 25.2456 45.0407 26.5072C45.0407 27.7687 44.0143 28.7951 42.7528 28.7951ZM24.2015 46.1948C25.4631 46.1948 26.4882 47.2212 26.4882 48.4827C26.4882 49.7455 25.4631 50.7706 24.2015 50.7706C22.94 50.7706 21.9149 49.7455 21.9149 48.4827C21.9149 47.2212 22.94 46.1948 24.2015 46.1948Z" fill="#03D87D"/>
</svg>
