<svg width="128" height="131" viewBox="0 0 128 131" fill="none" xmlns="http://www.w3.org/2000/svg">
<path d="M80.4224 124.159L76.5493 130.867H84.2952L80.4224 124.159L76.5493 130.867H84.2952L80.4224 124.159Z" fill="white"/>
<path d="M70.5203 33.7051V52.1067C70.5194 52.6057 70.3208 53.084 69.9679 53.4369C69.6151 53.7897 69.1368 53.9884 68.6378 53.9892H54.5229L54.6528 53.8231C62.0787 48.8655 67.3408 42.2511 70.3542 33.9159L70.5203 33.7051Z" fill="white"/>
<path d="M84.823 15.3774H4.832C3.55095 15.379 2.3228 15.8886 1.41696 16.7944C0.511122 17.7002 0.00154474 18.9284 0 20.2094V68.2568C0.00154474 69.5379 0.511122 70.766 1.41696 71.6719C2.3228 72.5777 3.55095 73.0873 4.832 73.0888H84.823C86.104 73.0873 87.3322 72.5777 88.238 71.6719C89.1438 70.766 89.6534 69.5379 89.655 68.2568V20.2094C89.6534 18.9284 89.1438 17.7002 88.238 16.7944C87.3322 15.8886 86.104 15.379 84.823 15.3774V15.3774ZM89.229 68.2568C89.2292 68.8355 89.1153 69.4085 88.8939 69.9431C88.6725 70.4777 88.348 70.9635 87.9388 71.3727C87.5296 71.7818 87.0439 72.1064 86.5092 72.3278C85.9746 72.5491 85.4016 72.663 84.823 72.6629H4.832C4.25335 72.663 3.68035 72.5491 3.14573 72.3278C2.6111 72.1064 2.12533 71.7818 1.71617 71.3727C1.307 70.9635 0.982457 70.4777 0.761071 69.9431C0.539685 69.4085 0.425799 68.8355 0.425914 68.2568V48.9565C0.425914 47.8321 0.480571 46.7212 0.589889 45.6237C1.41208 37.4474 5.2431 29.8683 11.3392 24.3578C17.4353 18.8472 25.3615 15.7985 33.5791 15.8034H84.823C85.9915 15.8035 87.1121 16.2677 87.9384 17.094C88.7647 17.9203 89.2289 19.0409 89.229 20.2094V68.2568Z" fill="white"/>
<path d="M59.2764 37.7827H17.6709C17.3301 37.7827 17.0032 37.9181 16.7622 38.1591C16.5211 38.4002 16.3857 38.7271 16.3857 39.0679C16.3857 39.4088 16.5211 39.7357 16.7622 39.9767C17.0032 40.2177 17.3301 40.3531 17.6709 40.3531H59.2764C59.6172 40.3531 59.9441 40.2177 60.1851 39.9767C60.4262 39.7357 60.5616 39.4088 60.5616 39.0679C60.5616 38.7271 60.4262 38.4002 60.1851 38.1591C59.9441 37.9181 59.6172 37.7827 59.2764 37.7827V37.7827Z" fill="white"/>
<path d="M30.5703 30.5742H17.6715C17.3304 30.5742 17.0032 30.7097 16.762 30.951C16.5208 31.1922 16.3853 31.5193 16.3853 31.8605C16.3853 32.2016 16.5208 32.5288 16.762 32.77C17.0032 33.0112 17.3304 33.1467 17.6715 33.1467H30.5703C30.9115 33.1467 31.2386 33.0112 31.4799 32.77C31.7211 32.5288 31.8566 32.2016 31.8566 31.8605C31.8566 31.5193 31.7211 31.1922 31.4799 30.951C31.2386 30.7097 30.9115 30.5742 30.5703 30.5742V30.5742Z" fill="white"/>
<path d="M17.6709 37.7827H24.049C23.244 38.7049 22.3698 39.5642 21.4339 40.3531H17.6709C17.3301 40.3531 17.0032 40.2177 16.7622 39.9767C16.5211 39.7357 16.3857 39.4088 16.3857 39.0679C16.3857 38.7271 16.5211 38.4002 16.7622 38.1591C17.0032 37.9181 17.3301 37.7827 17.6709 37.7827V37.7827Z" fill="#263669"/>
<path d="M17.6715 30.5742H28.4365C28.0929 31.4547 27.6968 32.3137 27.2503 33.1467H17.6715C17.3304 33.1467 17.0032 33.0112 16.762 32.77C16.5208 32.5288 16.3853 32.2016 16.3853 31.8605C16.3853 31.5193 16.5208 31.1922 16.762 30.951C17.0032 30.7097 17.3304 30.5742 17.6715 30.5742V30.5742Z" fill="#263669"/>
<path d="M29.469 16.0568C22.0197 16.9894 15.1071 20.4217 9.86132 25.7924C4.61556 31.1631 1.34696 38.1545 0.589889 45.6237C0.391839 45.5854 0.195921 45.5407 0 45.4938V20.2094C0.00154474 18.9284 0.511122 17.7002 1.41696 16.7944C2.3228 15.8886 3.55095 15.379 4.832 15.3774H29.2986C29.3604 15.601 29.4158 15.8289 29.469 16.0568Z" fill="white"/>
<path d="M29.2282 19.8071C31.4496 19.8071 33.2504 18.0063 33.2504 15.7849C33.2504 13.5635 31.4496 11.7627 29.2282 11.7627C27.0069 11.7627 25.2061 13.5635 25.2061 15.7849C25.2061 18.0063 27.0069 19.8071 29.2282 19.8071Z" fill="white"/>
<path d="M29.2283 20.0201C28.3907 20.0201 27.5718 19.7717 26.8754 19.3063C26.1789 18.8409 25.6361 18.1795 25.3155 17.4056C24.995 16.6318 24.9111 15.7802 25.0745 14.9587C25.238 14.1372 25.6413 13.3825 26.2336 12.7902C26.8259 12.198 27.5805 11.7946 28.4021 11.6312C29.2236 11.4678 30.0751 11.5516 30.849 11.8722C31.6229 12.1927 32.2843 12.7356 32.7497 13.432C33.215 14.1285 33.4634 14.9473 33.4634 15.7849C33.4621 16.9078 33.0155 17.9842 32.2216 18.7782C31.4276 19.5722 30.3511 20.0188 29.2283 20.0201ZM29.2283 11.9757C28.4749 11.9757 27.7384 12.1991 27.112 12.6177C26.4856 13.0363 25.9973 13.6312 25.709 14.3272C25.4207 15.0233 25.3453 15.7892 25.4923 16.5281C25.6393 17.267 26.002 17.9457 26.5348 18.4785C27.0675 19.0112 27.7462 19.374 28.4852 19.5209C29.2241 19.6679 29.99 19.5925 30.686 19.3042C31.3821 19.0159 31.977 18.5276 32.3955 17.9012C32.8141 17.2748 33.0375 16.5383 33.0375 15.7849C33.0364 14.775 32.6347 13.8068 31.9206 13.0927C31.2064 12.3785 30.2382 11.9768 29.2283 11.9757V11.9757Z" fill="#09518C"/>
<path d="M28.6794 17.8782C28.61 17.8782 28.5415 17.862 28.4794 17.8309C28.4172 17.7998 28.3632 17.7547 28.3216 17.6992L27.2242 16.236C27.189 16.189 27.1633 16.1355 27.1488 16.0786C27.1342 16.0217 27.131 15.9625 27.1393 15.9043C27.1476 15.8462 27.1673 15.7902 27.1972 15.7396C27.2271 15.6891 27.2667 15.6449 27.3137 15.6097C27.3607 15.5744 27.4142 15.5488 27.4711 15.5342C27.5281 15.5196 27.5873 15.5164 27.6455 15.5247C27.7036 15.533 27.7596 15.5527 27.8101 15.5826C27.8607 15.6126 27.9049 15.6522 27.9401 15.6992L28.658 16.6563L30.5018 13.8906C30.5677 13.792 30.6701 13.7237 30.7863 13.7005C30.9026 13.6774 31.0233 13.7013 31.1219 13.767C31.2206 13.8328 31.2891 13.935 31.3124 14.0513C31.3358 14.1675 31.312 14.2882 31.2464 14.387L29.0518 17.6789C29.0121 17.7384 28.9587 17.7876 28.8961 17.8222C28.8334 17.8569 28.7634 17.876 28.6919 17.878L28.6794 17.8782Z" fill="#7052A3"/>
<path d="M60.9587 48.1303C63.1801 48.1303 64.9809 46.3295 64.9809 44.1081C64.9809 41.8867 63.1801 40.0859 60.9587 40.0859C58.7373 40.0859 56.9365 41.8867 56.9365 44.1081C56.9365 46.3295 58.7373 48.1303 60.9587 48.1303Z" fill="white"/>
<path d="M60.9588 48.3433C60.1211 48.3433 59.3023 48.0949 58.6059 47.6295C57.9094 47.1642 57.3666 46.5027 57.046 45.7289C56.7255 44.955 56.6416 44.1035 56.805 43.2819C56.9684 42.4604 57.3718 41.7058 57.9641 41.1135C58.5564 40.5212 59.311 40.1178 60.1325 39.9544C60.9541 39.791 61.8056 39.8749 62.5795 40.1954C63.3533 40.516 64.0148 41.0588 64.4801 41.7553C64.9455 42.4517 65.1939 43.2705 65.1939 44.1082C65.1926 45.231 64.746 46.3075 63.952 47.1015C63.1581 47.8954 62.0816 48.342 60.9588 48.3433V48.3433ZM60.9588 40.299C60.2054 40.299 59.4689 40.5224 58.8425 40.9409C58.2161 41.3595 57.7278 41.9544 57.4395 42.6505C57.1512 43.3465 57.0758 44.1124 57.2227 44.8513C57.3697 45.5902 57.7325 46.269 58.2652 46.8017C58.798 47.3344 59.4767 47.6972 60.2156 47.8442C60.9545 47.9912 61.7204 47.9157 62.4165 47.6274C63.1125 47.3391 63.7074 46.8509 64.126 46.2245C64.5446 45.598 64.768 44.8616 64.768 44.1082C64.7668 43.0982 64.3652 42.13 63.651 41.4159C62.9369 40.7018 61.9687 40.3001 60.9588 40.299Z" fill="#09518C"/>
<path d="M60.4104 46.2014C60.3409 46.2014 60.2724 46.1852 60.2103 46.1541C60.1482 46.1231 60.0942 46.078 60.0525 46.0224L58.9552 44.5593C58.9199 44.5123 58.8943 44.4588 58.8797 44.4019C58.8651 44.345 58.8619 44.2857 58.8702 44.2276C58.887 44.1101 58.9498 44.0041 59.0447 43.9329C59.1396 43.8617 59.2589 43.8312 59.3764 43.8479C59.4939 43.8647 59.5999 43.9275 59.6711 44.0224L60.389 44.9796L62.2328 42.2138C62.2987 42.1153 62.401 42.0469 62.5173 42.0238C62.6335 42.0006 62.7543 42.0245 62.8529 42.0903C62.9515 42.156 63.02 42.2583 63.0434 42.3745C63.0667 42.4907 63.043 42.6115 62.9774 42.7102L60.7827 46.0021C60.743 46.0617 60.6896 46.1108 60.627 46.1455C60.5644 46.1801 60.4944 46.1992 60.4229 46.2012L60.4104 46.2014Z" fill="#09518C"/>
<path d="M50.1244 1.98873C48.3485 0.690749 46.2045 -0.00601288 44.0048 3.90935e-05C42.3402 0.0195045 40.7058 0.446879 39.2448 1.24472C37.7837 2.04256 36.5406 3.18653 35.6243 4.57639C35.4684 4.81459 35.8094 5.10441 35.967 4.86369C37.0833 3.16419 38.6976 1.85118 40.5889 1.10436C42.1099 0.518303 43.7537 0.323534 45.3695 0.537917C46.9854 0.7523 48.5215 1.36897 49.8371 2.33137C50.0681 2.50126 50.3568 2.15962 50.1244 1.98873V1.98873Z" fill="white"/>
<path d="M33.1132 3.01895L32.1157 6.72509C32.1098 6.75892 32.1116 6.79368 32.1212 6.82668C32.1307 6.85968 32.1477 6.89005 32.1709 6.91545C32.194 6.94086 32.2227 6.96062 32.2546 6.97322C32.2866 6.98583 32.321 6.99093 32.3553 6.98815L36.5295 6.31969C36.812 6.27445 36.7751 5.82866 36.4904 5.87425L32.3161 6.5427L32.5557 6.80577L33.5531 3.09963C33.628 2.82132 33.1875 2.74287 33.1132 3.01895V3.01895Z" fill="white"/>
<path d="M35.3865 52.5889C37.1624 53.8869 39.3065 54.5837 41.5061 54.5776C43.1707 54.5582 44.8051 54.1308 46.2662 53.3329C47.7272 52.5351 48.9703 51.3911 49.8866 50.0013C50.0425 49.7631 49.7015 49.4732 49.5439 49.714C48.4276 51.4135 46.8133 52.7265 44.9221 53.4733C43.4011 54.0594 41.7572 54.2541 40.1414 54.0398C38.5256 53.8254 36.9894 53.2087 35.6738 52.2463C35.4428 52.0764 35.1542 52.418 35.3865 52.5889V52.5889Z" fill="#09518C"/>
<path d="M52.3975 51.5588L53.395 47.8527C53.4009 47.8188 53.3991 47.7841 53.3895 47.7511C53.38 47.7181 53.363 47.6877 53.3398 47.6623C53.3167 47.6369 53.288 47.6171 53.2561 47.6045C53.2241 47.5919 53.1897 47.5868 53.1555 47.5896L48.9812 48.2581C48.6987 48.3033 48.7356 48.7491 49.0203 48.7035L53.1946 48.035L52.9551 47.772L51.9576 51.4781C51.8827 51.7564 52.3232 51.8349 52.3975 51.5588V51.5588Z" fill="#09518C"/>
<path d="M87.8193 10.7388H71.8684C71.3556 10.7388 70.8639 10.5351 70.5013 10.1725C70.1388 9.80992 69.9351 9.31817 69.9351 8.80542C69.9351 8.29266 70.1388 7.80091 70.5013 7.43834C70.8639 7.07576 71.3556 6.87207 71.8684 6.87207H87.8193C88.3321 6.87207 88.8238 7.07576 89.1864 7.43834C89.549 7.80091 89.7527 8.29266 89.7527 8.80542C89.7527 9.31817 89.549 9.80992 89.1864 10.1725C88.8238 10.5351 88.3321 10.7388 87.8193 10.7388V10.7388Z" fill="white"/>
<path d="M87.4532 8.80551L88.2144 8.04426C88.2361 8.02283 88.2532 7.99734 88.265 7.96925C88.2767 7.94117 88.2828 7.91104 88.2829 7.88059C88.2829 7.85015 88.277 7.82 88.2654 7.79186C88.2538 7.76372 88.2367 7.73815 88.2152 7.71663C88.1936 7.6951 88.1681 7.67804 88.1399 7.66642C88.1118 7.6548 88.0816 7.64886 88.0512 7.64893C88.0208 7.649 87.9906 7.65508 87.9625 7.66682C87.9345 7.67857 87.909 7.69574 87.8875 7.71737L87.1263 8.47861L86.3651 7.71737C86.3436 7.69574 86.3181 7.67857 86.2901 7.66682C86.262 7.65508 86.2318 7.649 86.2014 7.64893C86.171 7.64886 86.1408 7.6548 86.1127 7.66642C86.0845 7.67804 86.059 7.6951 86.0374 7.71663C86.0159 7.73815 85.9988 7.76372 85.9872 7.79186C85.9756 7.82 85.9697 7.85015 85.9697 7.88059C85.9698 7.91104 85.9759 7.94117 85.9876 7.96925C85.9994 7.99734 86.0166 8.02283 86.0382 8.04426L86.7994 8.80551L86.0436 9.56134C86.022 9.58276 86.0048 9.60825 85.993 9.63634C85.9813 9.66442 85.9752 9.69455 85.9751 9.725C85.9751 9.75544 85.981 9.78559 85.9926 9.81373C86.0043 9.84187 86.0213 9.86744 86.0428 9.88896C86.0644 9.91049 86.0899 9.92755 86.1181 9.93917C86.1462 9.95079 86.1764 9.95674 86.2068 9.95667C86.2373 9.9566 86.2674 9.95052 86.2955 9.93877C86.3236 9.92703 86.349 9.90985 86.3705 9.88822L87.1263 9.1324L87.8821 9.88822C87.9255 9.93125 87.9842 9.95533 88.0454 9.95519C88.1065 9.95505 88.1651 9.93071 88.2083 9.88749C88.2515 9.84427 88.2758 9.78569 88.276 9.72456C88.2761 9.66344 88.252 9.60475 88.209 9.56134L87.4532 8.80551Z" fill="#4B4B4B"/>
<path d="M62.4818 69.2657C62.4535 69.2657 62.4254 69.26 62.3992 69.249C62.3731 69.238 62.3494 69.2219 62.3296 69.2016L61.1145 67.9594C61.0755 67.9196 61.0537 67.8662 61.0537 67.8105C61.0537 67.7549 61.0755 67.7014 61.1145 67.6616L62.3296 66.4195C62.3491 66.3992 62.3724 66.383 62.3982 66.3717C62.424 66.3605 62.4518 66.3545 62.4799 66.354C62.508 66.3536 62.536 66.3587 62.5621 66.3691C62.5883 66.3795 62.6121 66.395 62.6322 66.4147C62.6523 66.4344 62.6683 66.4579 62.6793 66.4838C62.6903 66.5097 62.6961 66.5375 62.6962 66.5656C62.6964 66.5938 62.691 66.6217 62.6803 66.6477C62.6697 66.6738 62.6539 66.6974 62.6341 66.7173L61.5646 67.8105L62.6341 68.9038C62.6634 68.9338 62.6832 68.9717 62.691 69.0129C62.6989 69.0541 62.6944 69.0966 62.6781 69.1353C62.6619 69.1739 62.6346 69.2069 62.5997 69.2301C62.5647 69.2533 62.5238 69.2657 62.4818 69.2657V69.2657Z" fill="#09518C"/>
<path d="M64.524 69.2656C64.4821 69.2656 64.4411 69.2532 64.4062 69.2301C64.3712 69.2069 64.344 69.1739 64.3277 69.1352C64.3114 69.0966 64.307 69.054 64.3148 69.0129C64.3226 68.9717 64.3424 68.9337 64.3717 68.9038L65.4411 67.8105L64.3717 66.7173C64.3329 66.6768 64.3116 66.6226 64.3125 66.5665C64.3134 66.5104 64.3364 66.4569 64.3765 66.4177C64.4166 66.3784 64.4706 66.3566 64.5267 66.3569C64.5829 66.3573 64.6366 66.3798 64.6762 66.4195L65.8913 67.6616C65.9302 67.7014 65.952 67.7548 65.952 67.8105C65.952 67.8662 65.9302 67.9196 65.8913 67.9594L64.6762 69.2016C64.6564 69.2219 64.6327 69.238 64.6066 69.249C64.5804 69.26 64.5523 69.2657 64.524 69.2656V69.2656Z" fill="#09518C"/>
<path d="M68.6177 46.8675C68.7314 46.5553 68.9122 46.2719 69.1472 46.0372C69.3823 45.8025 69.666 45.6221 69.9783 45.5089C70.2906 45.3957 70.624 45.3523 70.9549 45.3819C71.2857 45.4114 71.6061 45.5131 71.8935 45.6799L91.9821 40.4155L92.3117 44.5541L72.6551 48.9383C72.3429 49.4024 71.8714 49.7359 71.3298 49.8756C70.7883 50.0152 70.2142 49.9514 69.7166 49.6962C69.2189 49.4409 68.8322 49.012 68.6297 48.4906C68.4271 47.9693 68.4229 47.3917 68.6177 46.8675V46.8675Z" fill="#A0616A"/>
<path d="M98.9041 39.5798C98.4261 38.8914 97.7582 38.3569 96.9819 38.0413C96.2055 37.7257 95.3541 37.6426 94.5314 37.8022L87.1445 39.2352C87.1445 39.2352 89.6875 47.7483 92.9079 47.5602C94.2652 47.481 95.9828 46.6836 97.5159 45.7876C98.0328 45.4878 98.482 45.0842 98.8353 44.6023C99.1886 44.1205 99.4383 43.5706 99.5687 42.9875C99.6991 42.4044 99.7074 41.8006 99.593 41.2141C99.4786 40.6276 99.244 40.0712 98.9041 39.5798V39.5798Z" fill="#09518C"/>
<path d="M91.5055 126.534L89.5482 126.517L88.6816 118.792L91.5704 118.816L91.5055 126.534Z" fill="#A0616A"/>
<path d="M92.3896 130.494L92.0255 125.632L91.5144 125.598L89.4295 125.455L88.7587 125.411L88.7459 126.81L85.6197 128.931C85.4827 129.024 85.3749 129.154 85.3089 129.306C85.2428 129.458 85.2213 129.625 85.2467 129.789C85.2721 129.953 85.3435 130.106 85.4525 130.231C85.5615 130.356 85.7037 130.447 85.8625 130.494C85.9411 130.518 86.023 130.53 86.1052 130.53L89.996 130.562L90.03 130.494L90.6774 129.182L90.9138 130.494L90.9266 130.571L92.396 130.583L92.3896 130.494Z" fill="#2F2E41"/>
<path d="M112.114 125.104L110.243 125.679L107.084 118.575L109.846 117.727L112.114 125.104Z" fill="#A0616A"/>
<path d="M112.337 124.088L111.839 124.209L109.809 124.701H109.807L109.155 124.861L109.566 126.2L107.226 129.165C107.125 129.294 107.063 129.449 107.045 129.612C107.028 129.776 107.057 129.94 107.129 130.088C107.2 130.236 107.312 130.36 107.45 130.448C107.589 130.535 107.75 130.582 107.914 130.583C108.001 130.583 108.087 130.57 108.169 130.545L108.336 130.494L111.89 129.401L112.122 127.879L112.78 129.126L114.183 128.694L112.337 124.088Z" fill="#2F2E41"/>
<path d="M87.5682 61.5708L83.8329 72.4261L83.7096 73.2947C82.7684 74.1883 83.9507 74.4828 83.5074 74.7184C83.0641 74.9541 82.766 75.6147 83.3634 75.7328C83.9608 75.8508 85.887 118.191 88.4276 119.835C90.9683 121.479 92.5146 122.668 92.0479 120.261C91.8599 119.291 92.1258 114.091 92.5104 108.227C92.554 107.562 93.2427 106.859 92.6453 106.213C92.0479 105.566 92.7189 105.141 92.7564 104.605C93.2923 96.9478 93.911 89.388 93.911 89.388C93.911 89.388 97.8708 102.987 98.8991 101.934C99.9273 100.881 99.5203 103.473 99.8346 104.248C100.097 104.895 98.9768 106.166 100.623 106.186C102.27 106.205 106.137 119.424 106.529 119.409C107.306 119.379 109.491 119.463 110.788 119.196C111.429 119.064 108.585 109.056 106.21 100.414C106.021 99.7253 104.99 99.7092 105.653 98.3787C106.316 97.0482 103.018 88.4391 103.301 88.041C104.052 86.9841 104.338 86.5248 103.597 86.4555C102.857 86.3863 102.638 86.7927 102.598 85.7675C102.558 84.7424 102.43 82.2143 102.43 82.2143C102.43 82.2143 101.893 72.2163 98.1353 66.6924L97.8148 63.4104L87.5682 61.5708Z" fill="#2F2E41"/>
<path d="M87.7383 61.8029C84.5012 62.273 79.2073 65.1433 82.8881 58.8215L86.7582 49.1688C83.9222 46.9669 86.305 42.8983 88.6814 38.832L94.1995 33.314H98.9932L100.261 38.1355C101.828 41.5098 102.028 45.3596 100.819 48.8781C100.03 51.1702 101.969 56.1445 101.581 56.5158C100.729 57.3308 99.238 56.3381 100.729 57.8993C102.219 59.4604 102.518 59.9599 101.943 60.562C101.368 61.164 100.09 63.0806 100.09 63.0806L98.1352 66.6922L87.7383 61.8029Z" fill="#09518C"/>
<path d="M97.7458 32.1813C100.558 31.0878 101.951 27.9216 100.857 25.1095C99.7638 22.2975 96.5976 20.9043 93.7856 21.9979C90.9735 23.0915 89.5804 26.2577 90.6739 29.0697C91.7675 31.8818 94.9337 33.2749 97.7458 32.1813Z" fill="#A0616A"/>
<path d="M103.116 34.1881C103.859 35.2513 104.356 36.4665 104.571 37.7456C103.972 38.1286 103.276 38.3297 102.565 38.3247C102.541 38.2316 102.517 38.1385 102.489 38.0455C102.283 37.3247 101.977 36.6366 101.579 36.0013C101.633 36.6864 101.541 37.3752 101.307 38.0213C100.931 37.8507 100.529 37.7468 100.117 37.7145C99.7823 37.7145 99.4519 37.7924 99.1521 37.942C98.804 36.7873 98.4834 35.7255 98.2559 34.9637C98.249 36.8734 95.4499 38.5384 92.3957 38.2971C92.2854 38.2282 93.392 35.0878 93.2851 35.0154C93.0404 34.8534 92.8025 34.6776 92.5647 34.5053C93.5643 32.9609 94.6502 31.3063 94.464 31.0581C94.4778 31.3649 93.3816 32.8403 92.1889 34.2329C91.5271 33.7469 95.2879 25.8391 93.4299 25.198C93.3989 25.4772 92.9887 25.4772 92.4888 25.4186C92.357 24.9579 92.1609 24.5181 91.9063 24.1121C91.9394 24.5211 91.8901 24.9325 91.7615 25.3221C91.2679 25.3222 90.7757 25.3742 90.293 25.4772C90.1813 25.3015 90.0581 25.1333 89.9242 24.9739C89.9374 25.1682 89.9316 25.3633 89.9069 25.5565C89.414 25.6633 89.0072 25.7874 88.9486 25.8874C88.5626 25.7461 89.2209 25.1083 88.9797 24.7774C88.3661 23.9501 89.2761 22.7436 89.8518 21.8887C91.0341 20.1376 93.6299 19.5309 95.4672 20.5822C95.5499 20.2961 95.9739 20.1065 96.5186 19.979C96.7493 19.9281 96.9856 19.9061 97.2218 19.9135C99.5658 19.9549 102.82 21.8887 102.947 24.2293C102.958 24.4637 102.975 24.7188 102.992 24.9911C103.158 27.611 102.954 30.0274 104.743 31.944C105.391 32.6369 105.398 35.9186 105.15 37.6077C104.506 36.9286 104.047 34.2881 103.116 34.1881Z" fill="#2F2E41"/>
<path d="M116.39 127.309C116.489 127.313 116.587 127.287 116.67 127.234C116.754 127.181 116.819 127.104 116.858 127.012C116.896 126.921 116.905 126.82 116.884 126.723C116.863 126.626 116.813 126.538 116.74 126.471L116.707 126.339C116.711 126.329 116.715 126.318 116.72 126.308C116.82 126.072 116.987 125.871 117.2 125.731C117.414 125.59 117.664 125.515 117.92 125.516C118.176 125.517 118.425 125.593 118.638 125.736C118.85 125.878 119.016 126.08 119.114 126.317C119.505 127.26 120.004 128.204 120.127 129.201C120.181 129.642 120.158 130.089 120.059 130.522C120.979 128.516 121.456 126.336 121.459 124.129C121.46 123.575 121.429 123.022 121.367 122.471C121.316 122.02 121.246 121.572 121.155 121.127C120.663 118.714 119.604 116.453 118.068 114.528C117.324 114.122 116.722 113.498 116.344 112.74C116.207 112.467 116.11 112.176 116.057 111.876C116.141 111.887 116.373 110.609 116.31 110.531C116.427 110.353 116.636 110.265 116.764 110.092C117.399 109.231 118.274 109.381 118.731 110.552C119.706 111.044 119.716 111.861 119.117 112.646C118.736 113.146 118.684 113.822 118.35 114.357C118.384 114.401 118.42 114.444 118.454 114.488C119.083 115.296 119.631 116.164 120.09 117.08C119.978 116.054 120.111 115.017 120.479 114.053C120.851 113.155 121.549 112.399 122.163 111.623C122.326 111.414 122.547 111.258 122.798 111.175C123.049 111.092 123.319 111.085 123.573 111.155C123.828 111.226 124.057 111.37 124.23 111.57C124.403 111.77 124.512 112.017 124.545 112.279C124.546 112.291 124.548 112.302 124.549 112.314C124.457 112.365 124.368 112.42 124.281 112.477C124.171 112.551 124.086 112.656 124.037 112.778C123.987 112.901 123.976 113.035 124.005 113.164C124.033 113.293 124.1 113.411 124.197 113.501C124.293 113.591 124.414 113.65 124.545 113.67L124.558 113.672C124.526 114.001 124.468 114.327 124.386 114.648C125.175 117.696 123.473 118.807 121.043 118.857C120.989 118.884 120.937 118.912 120.883 118.938C121.345 120.245 121.634 121.608 121.744 122.99C121.807 123.805 121.803 124.625 121.733 125.44L121.737 125.411C121.913 124.504 122.397 123.687 123.106 123.096C124.159 122.231 125.647 121.912 126.783 121.217C126.904 121.139 127.044 121.098 127.188 121.097C127.331 121.097 127.472 121.138 127.593 121.215C127.714 121.292 127.811 121.401 127.872 121.532C127.932 121.662 127.954 121.806 127.936 121.949L127.931 121.979C127.762 122.048 127.597 122.127 127.437 122.217C127.346 122.268 127.257 122.323 127.169 122.381C127.059 122.454 126.974 122.559 126.925 122.682C126.876 122.804 126.865 122.939 126.893 123.068C126.922 123.197 126.989 123.314 127.085 123.404C127.182 123.495 127.303 123.554 127.433 123.574L127.447 123.576C127.456 123.577 127.465 123.579 127.474 123.58C127.185 124.271 126.779 124.907 126.274 125.46C125.781 128.122 123.664 128.374 121.399 127.599H121.398C121.149 128.679 120.789 129.73 120.323 130.735H116.486C116.472 130.692 116.46 130.648 116.447 130.606C116.802 130.628 117.159 130.607 117.509 130.543C117.224 130.193 116.94 129.841 116.655 129.492C116.649 129.485 116.643 129.478 116.637 129.471C116.493 129.292 116.347 129.115 116.202 128.936L116.202 128.936C116.195 128.388 116.258 127.841 116.389 127.309L116.39 127.309Z" fill="#6FAF45"/>
<path d="M73.4683 130.747C73.4682 130.78 73.4746 130.813 73.4873 130.844C73.5 130.874 73.5187 130.902 73.5423 130.926C73.5658 130.95 73.5938 130.968 73.6246 130.981C73.6554 130.994 73.6884 131 73.7217 131H127.662C127.729 131 127.793 130.973 127.841 130.926C127.888 130.878 127.915 130.814 127.915 130.747C127.915 130.679 127.888 130.615 127.841 130.567C127.793 130.52 127.729 130.493 127.662 130.493H73.7217C73.6884 130.493 73.6554 130.5 73.6246 130.512C73.5938 130.525 73.5658 130.544 73.5423 130.567C73.5187 130.591 73.5001 130.619 73.4874 130.649C73.4747 130.68 73.4682 130.713 73.4683 130.747Z" fill="#CCCCCC"/>
<path d="M99.1814 76.069L88.0118 86.4332L73.4513 81.9421L70.0605 67.0869L81.2302 56.7227L95.7907 61.2137L99.1814 76.069Z" fill="white"/>
<path d="M80.612 68.3768C80.4483 68.0877 80.3499 67.7663 80.3239 67.4351C80.2978 67.1039 80.3447 66.771 80.4612 66.4599C80.5778 66.1488 80.7611 65.8671 80.9983 65.6345C81.2355 65.4019 81.5208 65.2241 81.8341 65.1138L90.8646 46.4131L94.2274 48.8479L84.8075 66.6487C84.9581 67.1874 84.9058 67.7626 84.6607 68.2653C84.4155 68.768 83.9944 69.1633 83.4773 69.3763C82.9601 69.5893 82.3828 69.6052 81.8547 69.421C81.3266 69.2367 80.8844 68.8652 80.612 68.3768V68.3768Z" fill="#A0616A"/>
<path d="M94.7208 40.6038C93.8869 40.5208 93.0468 40.682 92.3029 41.0679C91.559 41.4538 90.9433 42.0477 90.5308 42.7772L86.8276 49.3275C86.8276 49.3275 94.955 52.9169 96.9017 50.3447C97.7222 49.2605 98.2301 47.4363 98.5432 45.6883C98.6506 45.1005 98.635 44.4968 98.4976 43.9153C98.3602 43.3338 98.104 42.787 97.7449 42.3094C97.3858 41.8318 96.9318 41.4337 96.4113 41.1401C95.8909 40.8466 95.3153 40.664 94.7208 40.6038V40.6038Z" fill="#09518C"/>
<path d="M71.5847 38.1772V56.5789C71.5839 57.0779 71.3852 57.5562 71.0324 57.9091C70.6795 58.2619 70.2012 58.4605 69.7022 58.4614H55.5874L55.7173 58.2953C63.1431 53.3377 68.4053 46.7232 71.4186 38.3881L71.5847 38.1772Z" fill="#263669"/>
<path d="M12.0635 51.6465L8.19043 58.3546H15.9363L12.0635 51.6465L8.19043 58.3546H15.9363L12.0635 51.6465Z" fill="white"/>
<path d="M41.3759 83.2494C48.4712 83.2494 54.2231 77.4976 54.2231 70.4023C54.2231 63.307 48.4712 57.5552 41.3759 57.5552C34.2807 57.5552 28.5288 63.307 28.5288 70.4023C28.5288 77.4976 34.2807 83.2494 41.3759 83.2494Z" fill="white"/>
</svg>
