<svg width="22" height="28" viewBox="0 0 22 28" fill="none" xmlns="http://www.w3.org/2000/svg">
<path d="M8.96713 4C8.25624 4 7.63233 4.47093 7.43586 5.15482L4.06139 16.964C3.99356 17.2012 3.98175 17.4508 4.02689 17.6934C4.07203 17.9359 4.17287 18.1646 4.32149 18.3615C4.4701 18.5584 4.66241 18.718 4.88326 18.8279C5.10412 18.9378 5.34747 18.9949 5.59415 18.9947H7.49436L5.73963 26.0136C5.34369 27.5958 7.30089 28.6787 8.43321 27.5059L21.4452 14.2209L21.4512 14.2149C22.411 13.2146 21.7211 11.4988 20.3009 11.4988H16.4555L18.3482 6.10867L18.3512 6.09667C18.431 5.85718 18.4528 5.60212 18.4148 5.35254C18.3767 5.10296 18.2798 4.86601 18.1322 4.66122C17.9845 4.45644 17.7903 4.28969 17.5655 4.17472C17.3408 4.05976 17.0919 3.99987 16.8394 4H8.96713Z" fill="#48B1DD"/>
<g filter="url(#filter0_f_970_7681)">
<line x1="9.75558" y1="5.89418" x2="6.55558" y2="16.2942" stroke="white" stroke-width="2"/>
</g>
<defs>
<filter id="filter0_f_970_7681" x="0.599609" y="0.600098" width="15.1113" height="20.9883" filterUnits="userSpaceOnUse" color-interpolation-filters="sRGB">
<feFlood flood-opacity="0" result="BackgroundImageFix"/>
<feBlend mode="normal" in="SourceGraphic" in2="BackgroundImageFix" result="shape"/>
<feGaussianBlur stdDeviation="2.5" result="effect1_foregroundBlur_970_7681"/>
</filter>
</defs>
</svg>
