<svg width="282" height="174" viewBox="0 0 282 174" fill="none" xmlns="http://www.w3.org/2000/svg">
<rect width="282" height="151" rx="20" fill="#335588" fill-opacity="0.1"/>
<path d="M240.758 159.588L245.81 151.569C250.786 151.703 255.654 153.049 259.992 155.491C251.267 156.967 246.667 166.773 238.903 171.019C236.471 172.324 233.777 173.066 231.02 173.189C228.262 173.312 225.513 172.813 222.975 171.728L216.256 171.941C217.743 167.741 220.123 163.913 223.232 160.721C226.341 157.53 230.104 155.05 234.264 153.453C236.606 152.58 239.049 152.006 241.535 151.743C240.936 155.569 240.758 159.588 240.758 159.588Z" fill="#CCF381"/>
<path d="M236.626 46.6004V21.5174C236.626 19.6109 236.25 17.7231 235.521 15.9618C234.791 14.2005 233.722 12.6001 232.374 11.252C231.026 9.90398 229.425 8.83464 227.664 8.10507C225.903 7.3755 224.015 7 222.108 7H168.967C167.06 7 165.172 7.3755 163.411 8.10507C161.65 8.83464 160.049 9.90398 158.701 11.252C157.353 12.6001 156.284 14.2005 155.554 15.9618C154.825 17.7232 154.449 19.6109 154.449 21.5174V159.125C154.449 162.975 155.979 166.668 158.701 169.39C161.424 172.113 165.116 173.642 168.967 173.642H222.109C225.959 173.642 229.651 172.113 232.374 169.39C235.096 166.668 236.626 162.975 236.626 159.125V64.455C236.869 64.455 237.102 64.3585 237.273 64.1868C237.445 64.0151 237.541 63.7822 237.541 63.5394V47.5161C237.541 47.2732 237.445 47.0403 237.273 46.8686C237.102 46.6969 236.869 46.6005 236.626 46.6004Z" fill="#3F3D56"/>
<path d="M233.536 21.617V159.026C233.536 161.88 232.411 164.619 230.403 166.648C228.396 168.677 225.669 169.831 222.815 169.861C222.775 169.865 222.735 169.867 222.696 169.866H169.295C166.42 169.866 163.663 168.724 161.63 166.691C159.598 164.658 158.455 161.901 158.455 159.026V21.617C158.455 18.7421 159.598 15.985 161.63 13.9521C163.663 11.9192 166.42 10.777 169.295 10.7767H175.776C175.457 11.5591 175.336 12.4077 175.422 13.248C175.509 14.0883 175.8 14.8945 176.271 15.5956C176.743 16.2967 177.379 16.8713 178.124 17.2688C178.87 17.6662 179.701 17.8744 180.546 17.875H210.991C211.835 17.8727 212.665 17.6633 213.409 17.2653C214.153 16.8672 214.789 16.2926 215.259 15.5919C215.729 14.8912 216.021 14.0857 216.107 13.2462C216.194 12.4067 216.073 11.5587 215.756 10.7767H222.696C225.571 10.777 228.328 11.9192 230.361 13.9521C232.394 15.9849 233.536 18.7421 233.536 21.617Z" fill="white"/>
<path d="M221.779 166.512C221.779 167.935 221.734 169.347 221.644 170.747C221.605 170.752 221.566 170.753 221.526 170.752H168.127C165.711 170.752 163.364 169.945 161.459 168.459C159.554 166.974 158.2 164.894 157.611 162.551C157.508 162.142 157.43 161.727 157.378 161.308C157.317 160.846 157.287 160.379 157.287 159.912V98.6766C161.396 98.8798 165.478 99.4564 169.482 100.399C169.874 100.49 170.264 100.586 170.651 100.684C170.675 100.69 170.7 100.698 170.725 100.704C171.117 100.802 171.506 100.907 171.893 101.014C180.148 103.281 187.897 107.096 194.728 112.257C195.12 112.55 195.51 112.852 195.896 113.157L195.971 113.214C196.618 113.724 197.255 114.247 197.882 114.783C198.022 114.901 198.162 115.022 198.299 115.145C198.637 115.436 198.974 115.732 199.303 116.031C206.587 122.587 212.369 130.64 216.254 139.637C216.383 139.93 216.507 140.226 216.63 140.523C216.68 140.643 216.729 140.764 216.778 140.885C216.825 140.994 216.869 141.104 216.913 141.214C220.137 149.258 221.789 157.846 221.779 166.512Z" fill="#3F3D56"/>
<path d="M154.743 60.6329C154.415 60.6325 154.101 60.5022 153.869 60.2705C153.638 60.0388 153.507 59.7247 153.507 59.3971V50.9938C153.507 50.666 153.637 50.3517 153.869 50.1199C154.101 49.8882 154.415 49.758 154.743 49.758C155.07 49.758 155.385 49.8882 155.616 50.1199C155.848 50.3517 155.978 50.666 155.978 50.9938V59.3971C155.978 59.7247 155.848 60.0388 155.616 60.2705C155.384 60.5022 155.07 60.6325 154.743 60.6329Z" fill="#3F3D56"/>
<path d="M154.496 44.3205C154.168 44.3202 153.854 44.1898 153.622 43.9582C153.39 43.7265 153.26 43.4124 153.26 43.0848V34.6815C153.26 34.3537 153.39 34.0394 153.622 33.8076C153.853 33.5759 154.168 33.4457 154.496 33.4457C154.823 33.4457 155.138 33.5759 155.369 33.8076C155.601 34.0394 155.731 34.3537 155.731 34.6815V43.0848C155.731 43.4124 155.601 43.7265 155.369 43.9582C155.137 44.1898 154.823 44.3202 154.496 44.3205Z" fill="#3F3D56"/>
<path d="M187.367 12.1902C187.368 11.8626 187.498 11.5485 187.73 11.3168C187.961 11.0852 188.275 10.9549 188.603 10.9545H197.006C197.169 10.9542 197.33 10.986 197.48 11.048C197.63 11.11 197.766 11.201 197.881 11.3158C197.996 11.4305 198.087 11.5669 198.15 11.7169C198.212 11.867 198.244 12.0278 198.244 12.1903C198.244 12.3527 198.212 12.5135 198.15 12.6636C198.087 12.8136 197.996 12.95 197.881 13.0647C197.766 13.1795 197.63 13.2705 197.48 13.3325C197.33 13.3945 197.169 13.4263 197.006 13.426H188.603C188.275 13.4256 187.961 13.2953 187.73 13.0637C187.498 12.832 187.368 12.5179 187.367 12.1902Z" fill="white"/>
<path d="M154.743 74.9679C154.415 74.9675 154.101 74.8372 153.869 74.6055C153.638 74.3738 153.507 74.0597 153.507 73.7321V65.3288C153.507 65.001 153.637 64.6867 153.869 64.455C154.101 64.2232 154.415 64.093 154.743 64.093C155.07 64.093 155.385 64.2232 155.616 64.455C155.848 64.6867 155.978 65.001 155.978 65.3288V73.7321C155.978 74.0597 155.848 74.3738 155.616 74.6055C155.384 74.8372 155.07 74.9675 154.743 74.9679Z" fill="#3F3D56"/>
<path d="M201.703 13.4261C202.385 13.4261 202.938 12.8728 202.938 12.1903C202.938 11.5078 202.385 10.9545 201.703 10.9545C201.02 10.9545 200.467 11.5078 200.467 12.1903C200.467 12.8728 201.02 13.4261 201.703 13.4261Z" fill="white"/>
<path opacity="0.2" d="M197.139 160.423C197.139 157.857 197.644 155.316 198.626 152.945C199.608 150.575 201.047 148.421 202.861 146.606C204.676 144.792 206.829 143.353 209.2 142.371C211.571 141.389 214.111 140.884 216.677 140.885H216.779C216.729 140.764 216.68 140.643 216.631 140.523C216.507 140.226 216.384 139.93 216.255 139.637H197.139V115.145H198.3C198.163 115.022 198.023 114.901 197.883 114.783C197.255 114.248 196.617 113.725 195.971 113.214L195.897 113.157V113.897H171.894V101.014C171.507 100.907 171.117 100.802 170.725 100.704C170.7 100.698 170.676 100.69 170.651 100.684V113.897H158.456V115.145H170.651V139.637H158.456V140.885H170.651V160.423H158.547C158.599 160.841 158.677 161.256 158.78 161.665H170.651V169.866H171.894V161.665H195.897V169.866H197.139V161.665H218.082V160.423H197.139ZM195.897 160.423H171.894V140.885H195.897V160.423ZM195.897 139.637H171.894V139.148C171.894 132.782 174.423 126.677 178.924 122.176C183.426 117.674 189.531 115.145 195.897 115.145V139.637Z" fill="black"/>
<path d="M89.4605 70.8524L76.1381 173.333L76.0531 173.986H75.499L75.5841 173.333L88.9174 70.7811L89.4605 70.8524Z" fill="#4B4B4B"/>
<path d="M61.7242 70.9813L47.0331 173.344L46.9398 173.997H46.3857L46.479 173.344L61.1811 70.9045L61.7242 70.9813Z" fill="#4B4B4B"/>
<path d="M110.175 173.973L109.605 173.975L109.429 173.322L81.0098 67.7612L81.5391 67.6185L109.997 173.322L110.175 173.973Z" fill="#3F3D56"/>
<path d="M108.972 67.6145L108.444 67.7641L138.393 173.408L138.921 173.258L108.972 67.6145Z" fill="#3F3D56"/>
<path d="M133.204 154.026L106.047 159.644L106.158 160.181L133.315 154.563L133.204 154.026Z" fill="#3F3D56"/>
<path d="M128.496 137.546L101.339 143.165L101.45 143.702L128.607 138.084L128.496 137.546Z" fill="#3F3D56"/>
<path d="M123.791 121.066L96.8232 126.285L96.9274 126.824L123.895 121.605L123.791 121.066Z" fill="#3F3D56"/>
<path d="M119.081 104.59L92.7012 109.803L92.8075 110.341L119.187 105.128L119.081 104.59Z" fill="#3F3D56"/>
<path d="M61.26 70.9624C60.8475 68.2675 61.5224 65.5192 63.1363 63.3219C64.7502 61.1246 67.1708 59.6584 69.8657 59.2459C72.5606 58.8334 75.309 59.5083 77.5063 61.1222C79.7036 62.7361 81.1697 65.1567 81.5823 67.8516L81.0401 67.9347C80.8473 66.671 80.4075 65.4576 79.7456 64.364C79.0838 63.2704 78.213 62.3179 77.1829 61.5609C76.1528 60.8039 74.9837 60.2573 73.7423 59.9523C72.5009 59.6472 71.2116 59.5898 69.948 59.7832C68.6844 59.9766 67.4713 60.4171 66.378 61.0795C65.2847 61.7419 64.3326 62.6132 63.5762 63.6437C62.8197 64.6741 62.2737 65.8435 61.9693 67.085C61.6649 68.3266 61.6081 69.6159 61.8022 70.8794L61.26 70.9624Z" fill="#3F3D56"/>
<path d="M88.7339 71.0851C88.5117 69.7533 88.554 68.3908 88.8585 67.0753C89.163 65.7599 89.7236 64.5173 90.5084 63.4186C91.2932 62.3199 92.2867 61.3866 93.4323 60.6719C94.5778 59.9572 95.8529 59.4752 97.1848 59.2535C98.5167 59.0317 99.8792 59.0744 101.194 59.3793C102.51 59.6842 103.752 60.2453 104.851 61.0304C105.949 61.8155 106.882 62.8093 107.596 63.9551C108.311 65.1009 108.792 66.3762 109.014 67.7081L108.473 67.7981C108.048 65.2534 106.629 62.9816 104.53 61.4823C102.43 59.983 99.8211 59.3788 97.2761 59.8026C94.7312 60.2264 92.4587 61.6435 90.9583 63.7423C89.458 65.8412 88.8525 68.4499 89.275 70.9951L88.7339 71.0851Z" fill="#3F3D56"/>
<path d="M117.078 93.4706L111.807 106.295L128.983 106.171L127.236 93.4421L117.078 93.4706Z" fill="#FFB6B6"/>
<path d="M121.272 152.343L123.82 152.715L126.465 143.065L122.705 142.517L121.272 152.343Z" fill="#FFB6B6"/>
<path d="M120.824 150.994L124.886 151.341L124.634 153.067L128.077 156.27C128.247 156.428 128.362 156.636 128.406 156.864C128.449 157.093 128.418 157.329 128.318 157.538C128.217 157.747 128.052 157.919 127.847 158.028C127.642 158.138 127.408 158.178 127.178 158.145L122.384 157.446L121.806 155.618L121.235 157.278L119.427 157.014L120.824 150.994Z" fill="#2F2E41"/>
<path d="M91.8301 145.216L93.8626 146.797L100.926 139.709L97.9259 137.377L91.8301 145.216Z" fill="#FFB6B6"/>
<path d="M92.1056 143.822L95.4675 146.128L94.3971 147.505L95.8111 151.989C95.8809 152.211 95.8782 152.449 95.8032 152.669C95.7282 152.889 95.5849 153.079 95.3942 153.211C95.2035 153.344 94.9755 153.412 94.7433 153.406C94.5111 153.4 94.287 153.319 94.1037 153.177L90.2788 150.202L90.6783 148.328L89.3621 149.49L87.9199 148.368L92.1056 143.822Z" fill="#2F2E41"/>
<path d="M112.776 103.252L111.084 105.493L106.582 125.083L96.3477 138.905L99.7879 142.208L112.841 129.544L119.247 116.014L122.488 128.511L121.666 145.243L127.151 144.969C128.638 125.552 130.964 105.573 128.224 99.9619C126.419 101.537 124.311 102.727 122.029 103.46C119.748 104.192 117.341 104.452 114.956 104.222L112.776 103.252Z" fill="#2F2E41"/>
<path d="M121.831 72.7315L126.159 77.4639C127.109 78.5026 127.711 79.8117 127.881 81.2088C127.959 81.8432 127.946 82.4853 127.843 83.1161L126.91 89.9514L128.556 100.375C128.556 100.375 126.21 101.805 121.698 104.763C119.857 105.97 111.265 105.951 111.275 105.586C111.324 103.896 112.836 99.3408 113.195 93.7915C113.639 86.9421 113.057 78.7672 114.567 74.8653C116.41 70.1021 121.831 72.7315 121.831 72.7315Z" fill="#335588"/>
<path d="M106.979 103.058C107.168 102.783 107.294 102.47 107.349 102.141C107.404 101.813 107.386 101.476 107.297 101.155C107.207 100.833 107.049 100.536 106.832 100.283C106.615 100.029 106.345 99.8269 106.042 99.6892L106.211 94.4815L103.071 93.6068L102.936 100.964C102.738 101.49 102.74 102.069 102.942 102.593C103.143 103.117 103.529 103.549 104.028 103.807C104.526 104.065 105.102 104.131 105.646 103.993C106.19 103.855 106.664 103.522 106.979 103.058V103.058Z" fill="#FFB6B6"/>
<path d="M102.791 82.035C102.884 81.7924 103.026 81.5716 103.209 81.3867C103.391 81.2018 103.61 81.0567 103.851 80.9608C105.522 80.2588 112.747 74.3553 113.013 74.4661L115.306 73.3341C115.391 73.3351 117.65 73.3885 118.758 74.6453C118.989 74.9106 119.159 75.2227 119.258 75.56C119.356 75.8974 119.38 76.2521 119.328 76.5997C119.004 79.5927 108.762 86.3157 107.677 86.2704L106.527 94.7685L106.975 98.015L102.786 98.134L101.496 93.3538C101.31 93.0052 101.077 86.402 102.791 82.035Z" fill="#335588"/>
<path d="M119.583 77.4957C119.922 75.1723 118.617 73.0583 116.668 72.774C114.719 72.4897 112.865 74.1428 112.526 76.4663C112.187 78.7897 113.492 80.9037 115.441 81.188C117.389 81.4723 119.244 79.8192 119.583 77.4957Z" fill="#335588"/>
<path d="M88.0993 92.6869L87.9932 92.1488L113.469 86.3856V86.9342L88.0993 92.6869Z" fill="#3F3D56"/>
<path d="M200.881 53.9232H191.11C189.003 53.9232 187.294 55.6317 187.294 57.7394V57.7394C187.294 59.847 189.003 61.5556 191.11 61.5556H200.881C202.989 61.5556 204.697 59.847 204.697 57.7394C204.697 55.6317 202.989 53.9232 200.881 53.9232Z" fill="#E6E6E6"/>
<path d="M219.008 69.188H172.983C170.876 69.188 169.167 70.8966 169.167 73.0043V73.0043C169.167 75.1119 170.876 76.8205 172.983 76.8205H219.008C221.116 76.8205 222.824 75.1119 222.824 73.0043C222.824 70.8966 221.116 69.188 219.008 69.188Z" fill="#E6E6E6"/>
<path d="M199.259 80.6129H153.234C151.127 80.6129 149.418 82.3215 149.418 84.4291V84.4291C149.418 86.5368 151.127 88.2454 153.234 88.2454H199.259C201.367 88.2454 203.075 86.5368 203.075 84.4291C203.075 82.3215 201.367 80.6129 199.259 80.6129Z" fill="#335588"/>
<path d="M259.927 173.589C259.927 173.631 259.919 173.674 259.902 173.714C259.886 173.753 259.862 173.789 259.832 173.82C259.801 173.85 259.765 173.874 259.725 173.89C259.686 173.907 259.643 173.915 259.6 173.915L97.0303 173.973L96.4597 173.975L62.9083 173.986H62.3543L33.795 173.997H33.2409L24.3264 174C24.2398 174 24.1568 173.966 24.0956 173.904C24.0344 173.843 24 173.76 24 173.674C24 173.587 24.0344 173.504 24.0956 173.443C24.1568 173.382 24.2398 173.347 24.3264 173.347L33.3342 173.344H33.8882L62.4393 173.333H62.9934L96.2842 173.323H96.852L125.219 173.312H125.592L259.6 173.262C259.643 173.262 259.686 173.27 259.726 173.287C259.765 173.303 259.801 173.327 259.832 173.357C259.862 173.388 259.886 173.424 259.902 173.463C259.919 173.503 259.927 173.546 259.927 173.589Z" fill="#CACACA"/>
<path d="M126.411 68.0056C125.592 69.0933 124.427 69.8697 123.108 70.207C121.789 70.5443 120.394 70.4222 119.154 69.8611C117.913 69.2999 116.901 68.333 116.284 67.1196C115.666 65.9062 115.48 64.5187 115.757 63.1856C116.033 61.8524 116.755 60.6532 117.804 59.7853C118.853 58.9175 120.166 58.4327 121.528 58.4109C122.889 58.3891 124.217 58.8316 125.293 59.6655C126.37 60.4993 127.13 61.6749 127.449 62.9985C127.466 63.0703 127.481 63.1417 127.495 63.2158C127.663 64.0455 127.654 64.9014 127.467 65.7271C127.28 66.5527 126.92 67.3293 126.411 68.0056Z" fill="#FFB6B6"/>
<path d="M127.97 63.2851C127.819 62.534 127.876 62.9221 127.722 62.1734C127.754 62.5358 127.675 62.8994 127.495 63.2158L120.436 62.186L121.034 58.0821C123.222 57.5641 125.346 57.1615 126.346 58.857C127.434 59.0158 128.415 59.6004 129.072 60.4823C129.73 61.3642 130.01 62.4711 129.851 63.5595L127.97 63.2851Z" fill="#2F2E41"/>
<path d="M123.803 74.3278C123.808 74.251 123.812 74.1711 123.812 74.0935C123.798 73.5222 123.724 72.9538 123.591 72.3981C123.471 71.7957 123.348 71.1902 123.226 70.5874C123.34 71.6657 123.098 72.7518 122.539 73.6805C121.483 72.5785 122.181 70.9832 120.623 70.7559C116.877 70.2095 113.829 66.1925 114.376 62.4442C114.923 58.6986 116.938 56.132 120.684 56.6784C124.432 57.2252 127.222 59.384 126.748 63.1403C121.976 63.5529 124.729 74.0749 123.803 74.3278Z" fill="#2F2E41"/>
<path d="M115.562 60.0975C116.944 60.0975 118.064 58.9774 118.064 57.5957C118.064 56.214 116.944 55.0939 115.562 55.0939C114.181 55.0939 113.061 56.214 113.061 57.5957C113.061 58.9774 114.181 60.0975 115.562 60.0975Z" fill="#2F2E41"/>
<path d="M118.529 55.53C118.296 55.0251 117.942 54.5856 117.498 54.2503C117.054 53.9151 116.535 53.6944 115.985 53.6079C116.372 53.7829 116.71 54.0504 116.97 54.3868C117.229 54.7233 117.402 55.1183 117.472 55.5372C117.543 55.956 117.509 56.3858 117.375 56.7886C117.24 57.1915 117.008 57.555 116.7 57.8473L117.206 57.4125C117.344 57.53 117.516 57.6003 117.696 57.6132C117.877 57.6261 118.057 57.5809 118.21 57.4843C118.36 57.3831 118.486 57.2492 118.577 57.0927C118.668 56.9362 118.722 56.7611 118.736 56.5806C118.76 56.2184 118.689 55.8562 118.529 55.53Z" fill="#2F2E41"/>
<path d="M150.376 81.9908C150.079 81.8402 149.752 81.7566 149.419 81.7459C149.086 81.7353 148.754 81.7978 148.448 81.9291C148.141 82.0604 147.867 82.2572 147.645 82.5058C147.423 82.7544 147.258 83.0487 147.162 83.3679L141.979 83.893L141.529 87.1211L148.84 86.2767C149.387 86.4025 149.961 86.3233 150.453 86.0541C150.945 85.7849 151.322 85.3445 151.511 84.8162C151.701 84.2879 151.69 83.7085 151.481 83.1877C151.271 82.667 150.878 82.2411 150.376 81.9908Z" fill="#FFB6B6"/>
<path d="M130.098 88.9383C129.845 88.8787 129.607 88.7673 129.4 88.6112C129.192 88.455 129.019 88.2574 128.892 88.0309C127.974 86.4683 121.162 80.0934 121.236 79.8149L119.809 77.6923C119.799 77.6083 119.551 75.3621 120.649 74.0964C120.882 73.8327 121.168 73.6224 121.49 73.48C121.811 73.3376 122.159 73.2664 122.511 73.2714C125.52 73.1948 133.087 82.72 133.186 83.8018L142.221 83.5417L145.379 82.6662L146.054 86.8015L141.488 88.7166C141.167 88.9466 134.654 90.057 130.098 88.9383Z" fill="#335588"/>
</svg>
