<svg width="28" height="24" viewBox="0 0 28 24" fill="none" xmlns="http://www.w3.org/2000/svg">
<path d="M11.203 8.93617C11.203 8.73303 11.2834 8.5382 11.4266 8.39456C11.5698 8.25091 11.764 8.17021 11.9665 8.17021H20.1105C20.313 8.17021 20.5072 8.25091 20.6504 8.39456C20.7936 8.5382 20.874 8.73303 20.874 8.93617C20.874 9.13932 20.7936 9.33414 20.6504 9.47779C20.5072 9.62143 20.313 9.70213 20.1105 9.70213H11.9665C11.764 9.70213 11.5698 9.62143 11.4266 9.47779C11.2834 9.33414 11.203 9.13932 11.203 8.93617ZM20.1105 13.7872C20.313 13.7872 20.5072 13.7065 20.6504 13.5629C20.7936 13.4192 20.874 13.2244 20.874 13.0213C20.874 12.8181 20.7936 12.6233 20.6504 12.4797C20.5072 12.336 20.313 12.2553 20.1105 12.2553H11.9665C11.764 12.2553 11.5698 12.336 11.4266 12.4797C11.2834 12.6233 11.203 12.8181 11.203 13.0213C11.203 13.2244 11.2834 13.4192 11.4266 13.5629C11.5698 13.7065 11.764 13.7872 11.9665 13.7872H20.1105ZM28 20.1702C27.9966 21.1849 27.5934 22.1571 26.8782 22.8746C26.163 23.5921 25.1939 23.9966 24.1825 24H9.9305C8.91907 23.9966 7.95002 23.5921 7.23483 22.8746C6.51964 22.1571 6.11636 21.1849 6.11301 20.1702V3.82979C6.11301 3.22036 5.87169 2.63588 5.44213 2.20495C5.01258 1.77401 4.42999 1.53192 3.82251 1.53192C3.21503 1.53192 2.63243 1.77401 2.20288 2.20495C1.77333 2.63588 1.53201 3.22036 1.53201 3.82979C1.53016 4.39574 1.73889 4.94201 2.11736 5.3617C2.1842 5.43715 2.23558 5.52505 2.26855 5.62041C2.30153 5.71577 2.31546 5.81672 2.30956 5.91748C2.30365 6.01824 2.27802 6.11685 2.23412 6.20767C2.19023 6.29849 2.12893 6.37975 2.05373 6.44681C1.97853 6.51387 1.89091 6.56541 1.79585 6.5985C1.7008 6.63158 1.60018 6.64556 1.49974 6.63963C1.39931 6.6337 1.30101 6.60799 1.21048 6.56395C1.11995 6.51992 1.03895 6.45842 0.972108 6.38298C0.480531 5.83161 0.158641 5.14922 0.0453388 4.41827C-0.0679637 3.68731 0.0321699 2.93908 0.333639 2.26399C0.635108 1.5889 1.12501 1.01585 1.74414 0.614085C2.36328 0.212319 3.08514 -0.000966831 3.82251 3.29477e-06H21.1285C22.1399 0.00336879 23.109 0.407944 23.8242 1.12544C24.5394 1.84294 24.9426 2.8151 24.946 3.82979V17.3617H26.4603C26.5682 17.362 26.6748 17.3849 26.7734 17.4288C26.872 17.4728 26.9604 17.5369 27.0329 17.617C27.6571 18.3199 28.0014 19.2288 28 20.1702ZM12.221 20.1702C12.2229 19.6043 12.0141 19.058 11.6357 18.6383C11.5358 18.5303 11.4704 18.3948 11.4477 18.2493C11.4251 18.1037 11.4462 17.9547 11.5084 17.8213C11.5678 17.6847 11.6657 17.5684 11.79 17.4868C11.9143 17.4052 12.0597 17.3617 12.2083 17.3617H23.419V3.82979C23.4157 3.22139 23.1733 2.63886 22.7444 2.20865C22.3156 1.77844 21.7349 1.53527 21.1285 1.53192H6.87651C7.3746 2.19352 7.64279 3.00069 7.64001 3.82979V20.1702C7.64001 20.7796 7.88132 21.3641 8.31088 21.7951C8.74043 22.226 9.32303 22.4681 9.9305 22.4681C10.538 22.4681 11.1206 22.226 11.5501 21.7951C11.9797 21.3641 12.221 20.7796 12.221 20.1702ZM26.473 20.1702C26.4713 19.7166 26.3387 19.2732 26.0912 18.8936H13.5317C13.6734 19.3043 13.7465 19.7356 13.748 20.1702C13.7508 20.9993 13.4826 21.8065 12.9845 22.4681H24.1825C24.7889 22.4647 25.3696 22.2216 25.7984 21.7914C26.2273 21.3611 26.4697 20.7786 26.473 20.1702Z" fill="#335588"/>
</svg>
