<svg width="76" height="76" viewBox="0 0 76 76" fill="none" xmlns="http://www.w3.org/2000/svg">
<path d="M3 38H6.88889ZM38 3V6.88889ZM69.1111 38H73ZM13.1111 13.1111L15.8333 15.8333ZM62.8889 13.1111L60.1667 15.8333ZM26.3333 53.5556C23.0685 51.1069 20.6569 47.6931 19.44 43.7977C18.2232 39.9023 18.2628 35.7227 19.5534 31.8511C20.8439 27.9795 23.3199 24.6121 26.6306 22.2258C29.9414 19.8396 33.919 18.5556 38 18.5556C42.081 18.5556 46.0586 19.8396 49.3694 22.2258C52.6801 24.6121 55.1561 27.9795 56.4466 31.8511C57.7372 35.7227 57.7768 39.9023 56.56 43.7977C55.3431 47.6931 52.9315 51.1069 49.6667 53.5556C48.1483 55.0585 47.0051 56.8978 46.3295 58.9246C45.6539 60.9514 45.4649 63.1088 45.7778 65.2222C45.7778 67.285 44.9583 69.2633 43.4997 70.7219C42.0411 72.1806 40.0628 73 38 73C35.9372 73 33.9589 72.1806 32.5003 70.7219C31.0417 69.2633 30.2222 67.285 30.2222 65.2222C30.5351 63.1088 30.3461 60.9514 29.6705 58.9246C28.9949 56.8978 27.8517 55.0585 26.3333 53.5556M29.0556 57.4444H46.9444Z" fill="#6EC1E4"/>
<path d="M3 38H6.88889M38 3V6.88889M69.1111 38H73M13.1111 13.1111L15.8333 15.8333M62.8889 13.1111L60.1667 15.8333M26.3333 53.5556C23.0685 51.1069 20.6569 47.6931 19.44 43.7977C18.2232 39.9023 18.2628 35.7227 19.5534 31.8511C20.8439 27.9795 23.3199 24.6121 26.6306 22.2258C29.9414 19.8396 33.919 18.5556 38 18.5556C42.081 18.5556 46.0586 19.8396 49.3694 22.2258C52.6801 24.6121 55.1561 27.9795 56.4466 31.8511C57.7372 35.7227 57.7768 39.9023 56.56 43.7977C55.3431 47.6931 52.9315 51.1069 49.6667 53.5556C48.1483 55.0585 47.0051 56.8978 46.3295 58.9246C45.6539 60.9514 45.4649 63.1088 45.7778 65.2222C45.7778 67.285 44.9583 69.2633 43.4997 70.7219C42.0411 72.1806 40.0628 73 38 73C35.9372 73 33.9589 72.1806 32.5003 70.7219C31.0417 69.2633 30.2222 67.285 30.2222 65.2222C30.5351 63.1088 30.3461 60.9514 29.6705 58.9246C28.9949 56.8978 27.8517 55.0585 26.3333 53.5556M29.0556 57.4444H46.9444" stroke="#6EC1E4" stroke-width="5" stroke-linecap="round" stroke-linejoin="round"/>
</svg>
