<svg width="341" height="250" viewBox="0 0 341 250" fill="none" xmlns="http://www.w3.org/2000/svg">
<path d="M331.946 108.955C332.041 107.501 328.631 106.792 328.786 105.52C328.94 104.252 332.38 104.515 336.016 102.226C336.672 101.813 340.804 99.2111 340.401 97.2589C339.638 93.5586 323.252 95.4473 321.657 90.0643C321.307 88.883 321.632 87.2259 320.667 83.5129C320.283 82.0358 319.964 81.2692 319.313 81.0273C318.389 80.684 317.604 81.6969 315.336 83.1934C311.935 85.4377 311.314 84.7359 308.873 86.7134C307.062 88.1815 306.453 89.3393 305.664 89.1059C304.548 88.7757 305.047 86.244 303.769 85.6261C302.465 84.9955 300.191 86.7834 298.798 88.3338C296.183 91.2432 295.912 94.1591 295.043 96.825C294.098 99.7222 292.005 103.679 286.814 107.753L239.422 142.251C249.398 135.344 277.298 116.79 288.168 110.239C291.306 108.348 294.601 106.507 298.199 107.353C301.663 108.169 304.989 111.377 310.574 113.505C311.226 113.754 313.051 114.422 313.872 113.643C314.551 112.998 313.926 111.95 314.551 111.339C315.389 110.519 317.194 111.738 320.153 112.156C322.239 112.45 323.838 112.196 325.213 111.978C325.627 111.912 331.82 110.89 331.946 108.955L331.946 108.955V108.955Z" fill="#F2F2F2"/>
<path d="M251.87 89.3597C251.184 88.8937 249.852 90.3628 249.272 89.9197C248.695 89.4782 249.816 87.8659 249.742 85.4206C249.729 84.9796 249.644 82.2006 248.569 81.8351C246.533 81.1423 242.732 89.7296 239.63 88.9592C238.949 88.7901 238.23 88.1524 236.129 87.5548C235.293 87.317 234.825 87.2523 234.518 87.5021C234.083 87.8564 234.354 88.5343 234.434 90.079C234.554 92.3956 234.03 92.4982 234.297 94.2665C234.495 95.5792 234.887 96.2121 234.545 96.5318C234.061 96.9843 232.962 96.0092 232.29 96.458C231.605 96.9161 231.826 98.548 232.185 99.6792C232.858 101.802 234.211 102.776 235.269 103.972C236.418 105.272 237.757 107.44 238.258 111.164L241.516 144.378C241.005 137.489 239.948 118.442 239.869 111.217C239.846 109.131 239.893 106.982 241.347 105.461C242.747 103.996 245.281 103.289 247.937 101.162C248.247 100.914 249.102 100.211 248.956 99.5831C248.836 99.0638 248.141 99.0683 248.021 98.5851C247.861 97.937 248.98 97.4029 250.038 96.0714C250.785 95.1325 251.122 94.2745 251.411 93.5366C251.499 93.3142 252.784 89.98 251.87 89.3597L251.87 89.3597V89.3597Z" fill="#F2F2F2"/>
<path d="M263.423 101.774L265.531 97.8112L265.911 97.6612C267.666 96.9681 268.973 96.0125 269.797 94.8202C269.929 94.6307 270.05 94.4344 270.174 94.2347C270.664 93.4427 271.273 92.458 272.532 91.6864C273.236 91.2573 275.003 90.3582 276.06 91.3428C276.346 91.6045 276.487 91.9145 276.552 92.2098C276.608 92.1855 276.665 92.1617 276.725 92.1355C277.476 91.8271 277.931 91.7862 278.369 91.7469C278.705 91.7165 279.053 91.6856 279.698 91.4905C279.981 91.405 280.215 91.3196 280.411 91.2479C281.007 91.032 281.752 90.7981 282.448 91.2878C283.173 91.8369 283.141 92.7261 283.12 93.3148C283.084 94.3652 282.933 95.0372 282.832 95.4828C282.795 95.6455 282.755 95.829 282.754 95.8935C282.752 96.4144 284.944 97.4276 285.767 97.8136C287.619 98.675 289.222 99.4203 289.096 100.875C289.007 101.915 288.013 102.691 286.058 103.239C285.449 103.41 284.885 103.47 284.405 103.491C284.56 103.827 284.63 104.228 284.468 104.669C284.08 105.715 282.702 106.084 280.367 105.769C279.787 105.693 279.007 105.587 278.098 105.17C277.67 104.974 277.314 104.754 277.013 104.561C276.89 104.727 276.724 104.884 276.489 105.003C275.801 105.354 274.984 105.186 274.072 104.468C273.058 103.692 272.329 102.898 271.685 102.199C271.123 101.589 270.637 101.065 270.165 100.786C269.282 100.281 268.178 100.509 266.826 100.859L263.423 101.774L263.423 101.774V101.774Z" fill="#F2F2F2"/>
<path d="M280.343 81.1718L275.975 80.1375L275.734 79.8085C274.618 78.2865 273.362 77.2645 272 76.7695C271.783 76.6907 271.562 76.6231 271.338 76.5541C270.447 76.2807 269.34 75.9413 268.274 74.9187C267.681 74.3468 266.363 72.8656 267.047 71.594C267.228 71.2502 267.492 71.0361 267.761 70.898C267.724 70.8502 267.686 70.8013 267.645 70.7489C267.157 70.1014 267.002 69.6718 266.853 69.258C266.738 68.94 266.62 68.6117 266.267 68.037C266.113 67.7849 265.971 67.5808 265.852 67.4088C265.492 66.8875 265.077 66.2262 265.374 65.4289C265.721 64.5878 266.589 64.3933 267.164 64.2641C268.189 64.0332 268.878 64.0087 269.334 63.9926C269.501 63.9872 269.689 63.9801 269.751 63.9648C270.256 63.8344 270.68 61.457 270.845 60.5631C271.208 58.553 271.522 56.8135 272.961 56.566C273.99 56.388 274.993 57.1533 276.019 58.9053C276.338 59.451 276.539 59.9817 276.682 60.44C276.967 60.2049 277.337 60.0353 277.806 60.0809C278.915 60.1901 279.621 61.4305 279.91 63.7679C279.983 64.3489 280.078 65.1301 279.906 66.1151C279.824 66.5789 279.702 66.9788 279.591 67.3191C279.783 67.3959 279.978 67.5171 280.152 67.7134C280.666 68.29 280.711 69.1229 280.247 70.1876C279.754 71.3654 279.171 72.2717 278.658 73.0717C278.211 73.7706 277.828 74.3735 277.678 74.9008C277.412 75.8834 277.913 76.8933 278.595 78.1124L280.343 81.1718L280.343 81.1718V81.1718Z" fill="#F2F2F2"/>
<path d="M285.855 69.02L287.964 65.0574L288.343 64.9075C290.098 64.2143 291.406 63.2587 292.23 62.0664C292.361 61.8769 292.482 61.6807 292.606 61.4809C293.096 60.6889 293.706 59.7042 294.965 58.9326C295.669 58.5035 297.436 57.6044 298.492 58.589C298.779 58.8507 298.919 59.1607 298.985 59.4561C299.04 59.4317 299.097 59.4079 299.158 59.3818C299.908 59.0733 300.363 59.0324 300.801 58.9931C301.138 58.9627 301.486 58.9318 302.131 58.7367C302.414 58.6513 302.647 58.5658 302.844 58.4942C303.44 58.2782 304.184 58.0443 304.88 58.534C305.606 59.0831 305.574 59.9723 305.553 60.5611C305.516 61.6114 305.365 62.2834 305.265 62.729C305.228 62.8917 305.187 63.0752 305.186 63.1397C305.184 63.6606 307.377 64.6738 308.199 65.0598C310.052 65.9212 311.654 66.6665 311.529 68.1209C311.44 69.1617 310.446 69.9372 308.49 70.4856C307.882 70.656 307.317 70.7159 306.838 70.7374C306.993 71.0733 307.063 71.4738 306.9 71.9157C306.513 72.9611 305.134 73.3297 302.8 73.0156C302.219 72.939 301.44 72.8331 300.531 72.4166C300.103 72.2201 299.747 72 299.446 71.8068C299.323 71.9732 299.156 72.1306 298.922 72.2495C298.234 72.6006 297.417 72.4326 296.505 71.7138C295.49 70.9382 294.762 70.1441 294.118 69.4448C293.555 68.835 293.069 68.3116 292.597 68.0326C291.714 67.5269 290.61 67.7551 289.258 68.1056L285.855 69.02V69.02H285.855Z" fill="#F2F2F2"/>
<path d="M240.695 143.035L240.255 142.023L240.678 141.005L240.255 142.023L239.285 141.51C239.328 141.417 239.411 141.192 239.543 140.841C240.267 138.92 242.47 133.072 246.848 124.484C249.904 118.49 253.376 112.553 257.169 106.836C260.968 101.11 264.175 97.0027 266.753 93.7008C268.697 91.2106 270.591 88.8686 272.437 86.588C277.368 80.494 282.025 74.7371 286.281 67.7475C287.232 66.1876 289.21 62.9397 289.663 58.3524C289.925 55.6918 289.638 52.9736 288.808 50.2749L290.918 49.6262C291.833 52.6074 292.149 55.617 291.857 58.5711C291.355 63.6572 289.2 67.1962 288.165 68.8966C283.834 76.0095 279.131 81.8215 274.152 87.974C272.314 90.2469 270.427 92.5783 268.491 95.0584C265.937 98.3295 262.758 102.402 259.008 108.054C255.26 113.702 251.83 119.567 248.812 125.485C244.49 133.964 242.321 139.726 241.608 141.618C241.227 142.628 241.147 142.84 240.695 143.035V143.035V143.035Z" fill="#F2F2F2"/>
<path d="M283.49 50.8804C283.416 50.8293 283.341 50.7758 283.269 50.7181C281.776 49.5733 280.977 47.6629 280.891 45.0404C280.852 43.808 281.186 42.661 281.852 40.3735C281.954 40.0205 282.493 38.2433 283.589 36.0412C284.304 34.6021 284.703 34.0688 285.296 33.762C285.955 33.4196 286.68 33.3629 287.38 33.4691C287.476 33.2791 287.618 33.1124 287.819 32.9811C288.649 32.4347 289.405 33.0989 289.818 33.4524C290.024 33.6354 290.28 33.8656 290.595 34.0577C291.089 34.362 291.443 34.3957 291.978 34.449C292.491 34.4997 293.128 34.5626 293.911 34.8926C295.458 35.5375 296.33 36.6984 296.617 37.0808C298.136 39.0844 298.059 41.2789 297.968 43.8198C297.949 44.3285 297.831 46.1486 297.124 48.2695C296.614 49.7996 296.173 50.333 295.773 50.6805C294.954 51.3961 294.085 51.5316 291.99 51.7102C289.8 51.8997 288.702 51.9935 287.858 51.9297C285.896 51.7785 284.663 51.6836 283.49 50.8804L283.49 50.8804V50.8804Z" fill="#F2F2F2"/>
<path d="M274.796 0H151.156C146.621 0 142.933 3.68808 142.933 8.22362V135.755C142.933 140.29 146.621 143.978 151.156 143.978H274.796C279.332 143.978 283.02 140.29 283.02 135.755V8.22362C283.02 3.68808 279.332 0 274.796 0ZM282.155 135.755C282.155 139.819 278.86 143.114 274.796 143.114H151.156C147.092 143.114 143.797 139.819 143.797 135.755V8.22362C143.797 4.15942 147.092 0.864736 151.156 0.864736H216.648C252.827 0.864736 282.155 30.1933 282.155 66.3719V135.755V135.755Z" fill="#3F3D56"/>
<path d="M140.317 95.8494C135.983 97.0207 133.075 100.206 133.821 102.964C134.567 105.722 138.684 107.007 143.019 105.835C144.757 105.39 146.363 104.536 147.703 103.343L166.002 98.1485L163.381 89.6135L145.62 95.6407C143.861 95.2858 142.042 95.3573 140.317 95.8494V95.8494Z" fill="#FFB6B6"/>
<path d="M216.998 70.2432C216.998 70.2432 222.165 77.8217 210.521 83.5387C198.878 89.2557 177.356 97.4153 177.356 97.4153L147.639 104.3L143.151 94.4615L178.413 84.8541L207.147 68.8186L216.998 70.2432H216.998Z" fill="#3F3D56"/>
<path d="M213.541 50.0713C213.409 53.6637 215.995 57.9281 218.729 58.0157C222.019 58.121 237.569 59.2285 238.069 57.9388C241.54 48.984 225.194 30.4082 221.509 29.8723C219.529 29.5844 217.158 32.4273 216.247 34.7742C214.969 38.0631 216.854 39.6141 215.79 44.0448C214.979 47.4235 213.633 47.5599 213.541 50.0713Z" fill="#2F2E41"/>
<path d="M186.473 191.686L175.56 194.187L186.526 226.727L193.922 225.033L186.473 191.686Z" fill="#FFB6B6"/>
<path d="M182.574 216.579L186.795 217.198L187.446 219.46C187.446 219.46 187.586 216.583 192.248 214.612L193.46 216.636C193.46 216.636 195.956 218.242 196.762 222.222L198.553 232.989L194.888 233.961L192.199 226.888C192.199 226.888 190.719 225.535 188.365 234.686C188.365 234.686 187.412 237.761 178.765 237.405C177.577 237.356 176.531 236.563 176.214 235.417C176.039 234.784 176.116 234.13 176.846 233.692C178.704 232.576 180.864 232.68 181.698 230.698C182.531 228.715 182.574 216.579 182.574 216.579V216.579Z" fill="#2F2E41"/>
<path d="M210.184 206.48L200.438 206.239L201.802 240.504L209.388 240.64L210.184 206.48Z" fill="#FFB6B6"/>
<path d="M200.408 229.704L204.357 231.32L204.444 233.672C204.444 233.672 205.273 230.914 210.272 230.122L210.961 232.378C210.961 232.378 212.997 234.538 212.822 238.595L211.97 249.476L208.178 249.538L207.27 242.025C207.27 242.025 206.159 240.356 201.672 248.672C201.672 248.672 200.007 251.427 191.7 249.001C190.558 248.667 189.734 247.646 189.702 246.457C189.684 245.8 189.917 245.184 190.731 244.934C192.803 244.299 194.874 244.92 196.161 243.196C197.447 241.472 200.408 229.704 200.408 229.704V229.704Z" fill="#2F2E41"/>
<path d="M230.295 169.054L178.751 165.066L193.256 105.602L227.96 100.602L230.295 169.054Z" fill="#2F2E41"/>
<path d="M223.187 59.7502L234.047 53.9643L242.817 64.3193L225.194 120.804L192.957 106.529L217.442 64.6697L223.187 59.7502Z" fill="#335588"/>
<path d="M224.562 110.605C224.562 110.605 228.021 128.437 217.312 137.706L214.033 148.128L210.494 167.364L210.814 217.049L197.843 215.752L192.655 168.193L192.593 144.523L173.444 160.921L193.485 200.284L177.155 207.434L157.21 160C155.824 157.11 156.194 153.685 158.164 151.158L192.956 106.529L224.562 110.605V110.605Z" fill="#2F2E41"/>
<path d="M238.009 58.6423L216.716 78.5078C211.676 119.401 214.427 156.951 228.927 189.458L264.709 172.874C235.204 163.925 238.097 114.788 243.822 62.1391L238.009 58.6423V58.6423Z" fill="#3F3D56"/>
<path d="M219.645 64.735L222.921 59.6667L204.804 70.318L190.478 110.019L216.905 77.0392L219.645 64.735Z" fill="#3F3D56"/>
<path d="M264.964 139.411C266.213 143.723 269.45 146.574 272.194 145.779C274.938 144.983 276.149 140.844 274.899 136.531C274.424 134.801 273.541 133.21 272.325 131.892L266.803 113.689L258.316 116.462L264.661 134.112C264.337 135.877 264.441 137.694 264.964 139.411V139.411Z" fill="#FFB6B6"/>
<path d="M237.182 62.5631C237.182 62.5631 244.609 57.1813 250.658 68.6553C256.707 80.1294 265.482 101.409 265.482 101.409L273.218 130.915L263.512 135.684L252.896 100.712L236.041 72.4514L237.182 62.5631V62.5631Z" fill="#3F3D56"/>
<path d="M228.35 53.4986C235.011 53.4986 240.411 48.0986 240.411 41.4374C240.411 34.7762 235.011 29.3762 228.35 29.3762C221.689 29.3762 216.289 34.7762 216.289 41.4374C216.289 48.0986 221.689 53.4986 228.35 53.4986Z" fill="#FFB6B6"/>
<path d="M228.39 36.7318C227.711 36.6648 227.362 37.3827 224.769 38.3843C223.85 38.7392 223.38 38.9173 222.841 38.9519C221.201 39.0573 219.926 38.1515 219.074 37.5461C217.689 36.5621 216.797 35.9282 216.623 34.9148C216.396 33.5923 217.893 32.1151 220.896 29.2145C222.367 27.794 223.264 26.936 224.703 25.9148C227.117 24.2019 228.324 23.3454 230.016 23.1774C232.257 22.9548 233.961 24.0242 236.419 25.5673C237.083 25.9842 238.041 26.1847 239.056 26.2611C242.379 26.5112 245.228 28.7262 246.132 31.9339C246.201 32.179 246.259 32.4008 246.302 32.5907C248.086 40.3793 247.589 48.4802 245.147 56.0884C245.081 56.2932 245.026 56.4839 244.984 56.6576C243.85 61.291 228.27 63.0972 226.448 59.1802C225.301 56.7136 230.663 54.2456 231.464 46.891C232.022 41.7709 230.083 36.8988 228.39 36.7318V36.7318Z" fill="#2F2E41"/>
<path d="M181.414 39.4549H50.7295V40.1248H181.414V39.4549Z" fill="#E6E6E6"/>
<path d="M162.964 29.6606H69.1786C67.7011 29.6606 66.499 28.4585 66.499 26.981C66.499 25.5035 67.7011 24.3015 69.1786 24.3015H162.964C164.442 24.3015 165.644 25.5035 165.644 26.981C165.644 28.4585 164.442 29.6606 162.964 29.6606V29.6606Z" fill="#E6E6E6"/>
<path d="M51.0192 44.7859C54.1235 44.7859 56.64 42.2694 56.64 39.1652C56.64 36.0609 54.1235 33.5444 51.0192 33.5444C47.9149 33.5444 45.3984 36.0609 45.3984 39.1652C45.3984 42.2694 47.9149 44.7859 51.0192 44.7859Z" fill="#E6E6E6"/>
<path d="M68.3141 32.6797C71.4184 32.6797 73.9349 30.1632 73.9349 27.0589C73.9349 23.9546 71.4184 21.4381 68.3141 21.4381C65.2099 21.4381 62.6934 23.9546 62.6934 27.0589C62.6934 30.1632 65.2099 32.6797 68.3141 32.6797Z" fill="#E6E6E6"/>
<path d="M137.312 102.148H6.62793V102.818H137.312V102.148Z" fill="#3F3D56"/>
<path d="M118.862 92.3539H25.077C23.5995 92.3539 22.3975 91.1518 22.3975 89.6743C22.3975 88.1968 23.5995 86.9948 25.077 86.9948H118.862C120.34 86.9948 121.542 88.1968 121.542 89.6743C121.542 91.1518 120.34 92.3539 118.862 92.3539Z" fill="#335588"/>
<path d="M5.62078 107.479C8.72505 107.479 11.2416 104.963 11.2416 101.859C11.2416 98.7542 8.72505 96.2377 5.62078 96.2377C2.51651 96.2377 0 98.7542 0 101.859C0 104.963 2.51651 107.479 5.62078 107.479Z" fill="#335588"/>
<path d="M22.9157 95.373C26.02 95.373 28.5365 92.8565 28.5365 89.7522C28.5365 86.6479 26.02 84.1314 22.9157 84.1314C19.8114 84.1314 17.2949 86.6479 17.2949 89.7522C17.2949 92.8565 19.8114 95.373 22.9157 95.373Z" fill="#335588"/>
<path d="M152.877 171.327H22.1934V171.997H152.877V171.327Z" fill="#E6E6E6"/>
<path d="M134.428 161.533H40.6425C39.165 161.533 37.9629 160.331 37.9629 158.853C37.9629 157.376 39.165 156.174 40.6425 156.174H134.428C135.905 156.174 137.108 157.376 137.108 158.853C137.108 160.331 135.905 161.533 134.428 161.533Z" fill="#E6E6E6"/>
<path d="M38.0485 164.119C41.1528 164.119 43.6693 161.603 43.6693 158.499C43.6693 155.394 41.1528 152.878 38.0485 152.878C34.9442 152.878 32.4277 155.394 32.4277 158.499C32.4277 161.603 34.9442 164.119 38.0485 164.119Z" fill="#E6E6E6"/>
<path d="M21.1862 177.091C24.2905 177.091 26.807 174.574 26.807 171.47C26.807 168.366 24.2905 165.849 21.1862 165.849C18.0819 165.849 15.5654 168.366 15.5654 171.47C15.5654 174.574 18.0819 177.091 21.1862 177.091Z" fill="#E6E6E6"/>
</svg>
