<svg width="268" height="250" viewBox="0 0 268 250" fill="none" xmlns="http://www.w3.org/2000/svg">
<path d="M247.093 191.257L259.084 193.131C263.143 188.216 265.941 182.385 267.235 176.144C258.467 183.321 245.133 179.507 234.501 183.426C231.194 184.673 228.21 186.649 225.771 189.206C223.332 191.764 221.499 194.837 220.409 198.199L214.549 204.504C219.854 206.604 225.55 207.529 231.247 207.216C236.944 206.902 242.505 205.357 247.547 202.687C250.361 201.162 252.971 199.288 255.317 197.11C251.121 194.468 247.093 191.257 247.093 191.257Z" fill="#F2F2F2"/>
<path d="M242.835 172.079L254.404 168.408C255.845 162.199 255.749 155.733 254.123 149.569C249.477 159.904 235.841 162.437 228.072 170.686C225.669 173.277 223.88 176.376 222.837 179.753C221.794 183.129 221.525 186.698 222.049 190.193L219.615 198.45C225.3 197.963 230.811 196.251 235.77 193.429C240.729 190.608 245.017 186.745 248.34 182.107C250.178 179.487 251.678 176.645 252.806 173.65C247.873 173.156 242.835 172.079 242.835 172.079Z" fill="#F2F2F2"/>
<path d="M267.299 208.323C267.299 208.385 267.287 208.447 267.264 208.504C267.24 208.561 267.205 208.613 267.162 208.657C267.118 208.7 267.066 208.735 267.009 208.759C266.951 208.782 266.89 208.794 266.828 208.794H0.470772C0.345916 208.794 0.226172 208.745 0.137885 208.656C0.0495983 208.568 0 208.448 0 208.323C0 208.199 0.0495983 208.079 0.137885 207.991C0.226172 207.902 0.345916 207.853 0.470772 207.853H266.828C266.89 207.852 266.951 207.865 267.009 207.888C267.066 207.912 267.118 207.946 267.162 207.99C267.205 208.034 267.24 208.086 267.264 208.143C267.287 208.2 267.299 208.262 267.299 208.323Z" fill="#CCCCCC"/>
<path d="M110.374 188.253C157.348 188.253 195.429 150.173 195.429 103.198C195.429 56.2235 157.348 18.1429 110.374 18.1429C63.3989 18.1429 25.3184 56.2235 25.3184 103.198C25.3184 150.173 63.3989 188.253 110.374 188.253Z" fill="#E6E6E6"/>
<path d="M183.561 103.198C183.569 114.618 180.902 125.881 175.772 136.084C170.642 146.287 163.192 155.145 154.021 161.95C153.408 162.409 152.783 162.856 152.154 163.291C139.889 171.816 125.31 176.385 110.374 176.385C95.4371 176.385 80.8582 171.816 68.5937 163.291C67.9646 162.856 67.3396 162.409 66.7264 161.95C57.5612 155.139 50.1164 146.28 44.9872 136.078C39.8579 125.877 37.1865 114.617 37.1865 103.198C37.1865 91.7798 39.8579 80.5198 44.9872 70.3184C50.1164 60.1169 57.5612 51.2569 66.7264 44.4468C67.3396 43.9879 67.9646 43.5408 68.5937 43.1057C80.8582 34.5804 95.4372 30.0111 110.374 30.0111C125.31 30.0111 139.889 34.5804 152.154 43.1057C152.783 43.5408 153.408 43.9879 154.021 44.4468C163.192 51.2509 170.642 60.1097 175.772 70.3125C180.902 80.5153 183.569 91.7783 183.561 103.198Z" fill="white"/>
<path d="M110.373 170.056C147.297 170.056 177.23 140.123 177.23 103.198C177.23 66.2739 147.297 36.3408 110.373 36.3408C73.4487 36.3408 43.5156 66.2739 43.5156 103.198C43.5156 140.123 73.4487 170.056 110.373 170.056Z" fill="#6C63FF"/>
<path opacity="0.2" d="M110.548 36.5276C109.534 36.5276 108.527 36.5542 107.525 36.5988C124.422 38.0836 140.124 45.9363 151.448 58.5657C162.772 71.1952 168.872 87.657 168.513 104.616C168.153 121.575 161.359 137.763 149.51 149.901C137.66 162.039 121.639 169.218 104.693 169.984C106.623 170.152 108.575 170.242 110.548 170.242C128.279 170.242 145.285 163.199 157.823 150.66C170.361 138.122 177.405 121.117 177.405 103.385C177.405 85.6534 170.361 68.6479 157.823 56.1097C145.285 43.5715 128.279 36.5277 110.548 36.5277V36.5276Z" fill="black"/>
<path d="M110.571 31.5935C109.995 31.5945 109.442 31.8241 109.034 32.2319C108.626 32.6397 108.397 33.1926 108.396 33.7693V43.2639C108.396 43.8409 108.625 44.3944 109.033 44.8024C109.441 45.2105 109.994 45.4397 110.571 45.4397C111.148 45.4397 111.702 45.2105 112.11 44.8024C112.518 44.3944 112.747 43.8409 112.747 43.2639V33.7693C112.746 33.1926 112.517 32.6397 112.109 32.2319C111.701 31.8241 111.148 31.5945 110.571 31.5935Z" fill="white"/>
<path d="M154.021 44.4467C153.408 43.9878 152.783 43.5408 152.154 43.1056C151.776 43.081 151.399 43.1553 151.059 43.3211C150.719 43.4869 150.428 43.7385 150.215 44.0511L144.87 51.896C144.546 52.3729 144.424 52.9592 144.531 53.526C144.639 54.0928 144.967 54.5937 145.444 54.9184C145.921 55.2431 146.507 55.3651 147.074 55.2576C147.641 55.15 148.142 54.8217 148.467 54.3448L153.811 46.4999C154.015 46.2023 154.14 45.8586 154.177 45.5C154.213 45.1414 154.16 44.7793 154.021 44.4467Z" fill="white"/>
<path d="M178.303 80.2174C178.196 79.9529 178.037 79.7122 177.837 79.509C177.636 79.3058 177.397 79.1441 177.134 79.0331C176.871 78.9222 176.589 78.8641 176.303 78.8623C176.018 78.8606 175.735 78.915 175.471 79.0227L166.672 82.595C166.138 82.8125 165.712 83.2332 165.488 83.7646C165.264 84.2959 165.26 84.8945 165.477 85.4288C165.694 85.963 166.115 86.3893 166.646 86.6138C167.177 86.8383 167.776 86.8428 168.31 86.6262L177.108 83.0539C177.642 82.8353 178.068 82.414 178.291 81.8824C178.515 81.3508 178.52 80.7521 178.303 80.2174Z" fill="white"/>
<path d="M75.8762 51.896L70.5315 44.0512C70.3186 43.7386 70.0277 43.487 69.6878 43.3212C69.3478 43.1553 68.9705 43.0811 68.5931 43.1057C67.964 43.5408 67.339 43.9879 66.7258 44.4468C66.5868 44.7794 66.5332 45.1414 66.5698 45.5C66.6064 45.8586 66.7321 46.2024 66.9355 46.5L72.2801 54.3448C72.6048 54.8217 73.1057 55.15 73.6725 55.2576C74.2393 55.3652 74.8257 55.2432 75.3025 54.9185C75.7794 54.5937 76.1077 54.0929 76.2153 53.5261C76.3229 52.9592 76.2009 52.3729 75.8762 51.896Z" fill="white"/>
<path d="M54.0746 82.595L45.2764 79.0227C44.7418 78.8056 44.1429 78.8098 43.6115 79.0342C43.08 79.2587 42.6594 79.685 42.4422 80.2195C42.2251 80.7541 42.2291 81.3529 42.4535 81.8845C42.6778 82.416 43.1041 82.8366 43.6386 83.0539L52.4368 86.6262C52.9713 86.8428 53.5699 86.8383 54.101 86.6138C54.6322 86.3892 55.0524 85.963 55.2695 85.4288C55.4866 84.8945 55.4826 84.2959 55.2586 83.7646C55.0345 83.2332 54.6087 82.8125 54.0746 82.595V82.595Z" fill="white"/>
<path d="M110.571 160.957C109.995 160.958 109.442 161.187 109.034 161.595C108.626 162.003 108.397 162.556 108.396 163.132V172.627C108.396 173.204 108.625 173.758 109.033 174.166C109.441 174.574 109.994 174.803 110.571 174.803C111.148 174.803 111.702 174.574 112.11 174.166C112.518 173.758 112.747 173.204 112.747 172.627V163.132C112.746 162.556 112.517 162.003 112.109 161.595C111.701 161.187 111.148 160.958 110.571 160.957Z" fill="white"/>
<path d="M153.811 159.896L148.467 152.052C148.306 151.815 148.1 151.613 147.861 151.457C147.622 151.3 147.355 151.192 147.074 151.139C146.793 151.085 146.505 151.088 146.225 151.146C145.946 151.204 145.68 151.317 145.444 151.478C145.208 151.639 145.006 151.844 144.849 152.083C144.693 152.322 144.585 152.59 144.531 152.87C144.478 153.151 144.481 153.439 144.539 153.719C144.597 153.999 144.71 154.264 144.87 154.5L150.215 162.345C150.428 162.658 150.719 162.909 151.059 163.075C151.399 163.241 151.776 163.315 152.154 163.291C152.783 162.856 153.408 162.408 154.021 161.95C154.16 161.617 154.213 161.255 154.177 160.896C154.14 160.538 154.015 160.194 153.811 159.896Z" fill="white"/>
<path d="M177.108 123.342L168.31 119.77C167.775 119.553 167.176 119.557 166.645 119.782C166.113 120.006 165.693 120.432 165.475 120.967C165.258 121.501 165.262 122.1 165.487 122.632C165.711 123.163 166.137 123.584 166.672 123.801L175.47 127.374C176.004 127.59 176.603 127.586 177.134 127.361C177.665 127.137 178.086 126.71 178.303 126.176C178.52 125.642 178.516 125.043 178.292 124.512C178.068 123.981 177.642 123.56 177.108 123.342V123.342Z" fill="white"/>
<path d="M75.3025 151.478C74.8256 151.153 74.2393 151.031 73.6725 151.139C73.1058 151.247 72.6049 151.575 72.2801 152.052L66.9355 159.896C66.7321 160.194 66.6064 160.538 66.5698 160.896C66.5332 161.255 66.5868 161.617 66.7258 161.95C67.339 162.409 67.964 162.856 68.5931 163.291C68.9705 163.315 69.3478 163.241 69.6878 163.075C70.0277 162.909 70.3186 162.658 70.5315 162.345L75.8762 154.5C76.037 154.264 76.1497 153.999 76.2079 153.719C76.2661 153.439 76.2686 153.151 76.2154 152.87C76.1621 152.59 76.0541 152.322 75.8974 152.083C75.7408 151.844 75.5386 151.639 75.3025 151.478Z" fill="white"/>
<path d="M55.2689 120.965C55.1614 120.7 55.0029 120.46 54.8024 120.256C54.6018 120.053 54.3632 119.892 54.1002 119.781C53.8371 119.67 53.5548 119.612 53.2693 119.61C52.9838 119.608 52.7008 119.662 52.4363 119.77L43.6381 123.342C43.104 123.56 42.6782 123.981 42.4541 124.512C42.2301 125.043 42.2262 125.642 42.4432 126.176C42.6603 126.71 43.0805 127.137 43.6117 127.361C44.1429 127.586 44.7414 127.59 45.2759 127.374L54.0742 123.801C54.608 123.583 55.0334 123.161 55.2573 122.63C55.4812 122.098 55.4854 121.5 55.2689 120.965Z" fill="white"/>
<path d="M113.394 102.119C113.595 103.308 113.316 104.528 112.618 105.512C111.92 106.496 110.861 107.163 109.672 107.367L71.0614 113.934C70.4724 114.034 69.8695 114.017 69.287 113.885C68.7045 113.752 68.1539 113.506 67.6665 113.16C67.1792 112.814 66.7648 112.376 66.4468 111.87C66.1288 111.364 65.9136 110.801 65.8134 110.212C65.7133 109.623 65.7301 109.02 65.8629 108.437C65.9957 107.855 66.242 107.304 66.5876 106.817C66.9333 106.33 67.3715 105.915 67.8773 105.597C68.3831 105.279 68.9466 105.064 69.5356 104.964L108.146 98.3964C109.335 98.1955 110.556 98.4746 111.54 99.1724C112.523 99.8701 113.19 100.93 113.394 102.119Z" fill="#3F3D56"/>
<path d="M154.03 144.896C153.476 145.454 152.722 145.769 151.936 145.772C151.149 145.775 150.393 145.466 149.834 144.912L108.271 103.675C107.713 103.12 107.398 102.367 107.396 101.581C107.393 100.794 107.702 100.039 108.256 99.4807C108.81 98.9224 109.563 98.6069 110.35 98.6034C111.136 98.6 111.892 98.9089 112.45 99.4623L154.014 140.7C154.572 141.254 154.887 142.008 154.89 142.794C154.893 143.581 154.584 144.337 154.03 144.896Z" fill="#3F3D56"/>
<path d="M110.373 108.341C113.214 108.341 115.516 106.039 115.516 103.198C115.516 100.358 113.214 98.0553 110.373 98.0553C107.533 98.0553 105.23 100.358 105.23 103.198C105.23 106.039 107.533 108.341 110.373 108.341Z" fill="#CCCCCC"/>
<path d="M74.9495 14.0202C67.0552 26.4314 55.0104 34.668 40.156 40.079C39.8625 40.2988 39.5286 40.4587 39.1733 40.5494C38.8179 40.6402 38.4482 40.6601 38.0852 40.608C37.7222 40.5559 37.373 40.4328 37.0576 40.2458C36.7422 40.0587 36.4667 39.8114 36.2468 39.5178C28.1781 28.7445 30 13.3473 40.6491 5.11521C43.2236 3.12843 46.1672 1.67286 49.3089 0.832997C52.4506 -0.00686535 55.7278 -0.214292 58.9504 0.222765C62.1729 0.659821 65.2765 1.73265 68.081 3.37897C70.8855 5.0253 73.3351 7.21232 75.2875 9.81306L75.5106 10.111C75.7305 10.4046 75.8903 10.7385 75.9811 11.0938C76.0719 11.4491 76.0918 11.8188 76.0397 12.1819C75.9876 12.5449 75.8645 12.894 75.6774 13.2095C75.4904 13.5249 75.243 13.8004 74.9495 14.0202Z" fill="#E6E6E6"/>
<path d="M145.459 9.81306C147.412 7.21231 149.861 5.02529 152.666 3.37897C155.47 1.73265 158.574 0.659823 161.796 0.222766C165.019 -0.214291 168.296 -0.00686969 171.438 0.832993C174.58 1.67286 177.523 3.12843 180.098 5.1152C190.747 13.3473 192.569 28.7445 184.5 39.5178C184.28 39.8114 184.005 40.0587 183.689 40.2458C183.374 40.4328 183.025 40.5559 182.662 40.608C182.299 40.6601 181.929 40.6402 181.573 40.5494C181.218 40.4587 180.884 40.2988 180.591 40.079C166.801 34.7995 155.493 25.6633 145.797 14.0202C145.204 13.5762 144.812 12.915 144.707 12.1818C144.602 11.4487 144.792 10.7038 145.236 10.111L145.459 9.81306Z" fill="#E6E6E6"/>
<path d="M141.999 176.887C141.496 177.17 141.125 177.64 140.969 178.195C140.812 178.75 140.882 179.345 141.162 179.848L153.72 202.288C154.002 202.792 154.472 203.162 155.027 203.319C155.582 203.476 156.177 203.406 156.681 203.124C157.184 202.842 157.555 202.372 157.712 201.817C157.869 201.261 157.799 200.667 157.517 200.163L144.96 177.723C144.677 177.22 144.207 176.85 143.652 176.693C143.097 176.537 142.502 176.606 141.999 176.887Z" fill="#E6E6E6"/>
<path d="M75.7853 177.723L63.228 200.163C62.9464 200.667 62.8763 201.261 63.0331 201.817C63.19 202.372 63.561 202.842 64.0645 203.124C64.568 203.406 65.1628 203.476 65.7181 203.319C66.2733 203.162 66.7436 202.792 67.0255 202.288L79.5828 179.848C79.7224 179.599 79.8115 179.325 79.8451 179.041C79.8786 178.757 79.8559 178.469 79.7783 178.194C79.7007 177.919 79.5696 177.662 79.3926 177.438C79.2157 177.213 78.9962 177.026 78.7468 176.887C78.4974 176.747 78.223 176.658 77.9392 176.624C77.6554 176.591 77.3678 176.614 77.0927 176.691C76.8177 176.769 76.5607 176.9 76.3364 177.077C76.1121 177.254 75.9248 177.474 75.7853 177.723H75.7853Z" fill="#E6E6E6"/>
<path d="M156.263 208.034C159.978 208.034 162.989 205.023 162.989 201.308C162.989 197.594 159.978 194.583 156.263 194.583C152.549 194.583 149.538 197.594 149.538 201.308C149.538 205.023 152.549 208.034 156.263 208.034Z" fill="#E6E6E6"/>
<path d="M161.01 35.9452C164.725 35.9452 167.736 32.9341 167.736 29.2199C167.736 25.5056 164.725 22.4946 161.01 22.4946C157.296 22.4946 154.285 25.5056 154.285 29.2199C154.285 32.9341 157.296 35.9452 161.01 35.9452Z" fill="#E6E6E6"/>
<path d="M109.977 20.121C113.692 20.121 116.703 17.1099 116.703 13.3956C116.703 9.68137 113.692 6.67035 109.977 6.67035C106.263 6.67035 103.252 9.68137 103.252 13.3956C103.252 17.1099 106.263 20.121 109.977 20.121Z" fill="#E6E6E6"/>
<path d="M61.3181 35.154C65.0324 35.154 68.0434 32.143 68.0434 28.4287C68.0434 24.7144 65.0324 21.7034 61.3181 21.7034C57.6038 21.7034 54.5928 24.7144 54.5928 28.4287C54.5928 32.143 57.6038 35.154 61.3181 35.154Z" fill="#E6E6E6"/>
<path d="M65.6696 208.034C69.3839 208.034 72.3949 205.023 72.3949 201.308C72.3949 197.594 69.3839 194.583 65.6696 194.583C61.9554 194.583 58.9443 197.594 58.9443 201.308C58.9443 205.023 61.9554 208.034 65.6696 208.034Z" fill="#E6E6E6"/>
<path d="M150.988 141.113C151.253 141.528 151.606 141.88 152.022 142.144C152.437 142.408 152.906 142.578 153.394 142.641C153.883 142.704 154.379 142.66 154.849 142.51C155.318 142.361 155.749 142.111 156.111 141.777L166.664 147.431L166.098 141.236L156.164 136.816C155.562 136.245 154.772 135.914 153.944 135.886C153.115 135.859 152.305 136.136 151.667 136.666C151.029 137.195 150.607 137.941 150.482 138.76C150.357 139.58 150.537 140.417 150.988 141.113H150.988Z" fill="#FFB7B7"/>
<path d="M158.678 143.276L162.813 137.567L182.736 146.985L207.527 142.334C208.753 142.104 210.014 142.146 211.221 142.459C212.428 142.771 213.551 143.345 214.512 144.14C215.472 144.936 216.245 145.933 216.777 147.06C217.308 148.188 217.585 149.419 217.588 150.666C217.589 152.918 216.698 155.079 215.108 156.674C213.519 158.269 211.361 159.169 209.109 159.176L180.698 159.228L158.678 143.276Z" fill="#3F3D56"/>
<path d="M152.307 241.871L148.123 239.87L153.871 222.381L160.046 225.335L152.307 241.871Z" fill="#FFB7B7"/>
<path d="M180.358 239.052C180.054 239.242 179.75 239.43 179.442 239.617C178.831 239.992 178.213 240.361 177.595 240.724C177.285 240.905 176.971 241.086 176.661 241.265V241.274L176.643 241.277L176.636 241.28L176.163 241.397L175.484 239.602L175.17 238.775L174.728 237.604L173.916 235.462L169.645 224.183L176.286 222.545L176.535 223.562H176.538L176.661 224.066L178.981 233.477L179.455 235.401L179.47 235.459L179.756 236.609L180.002 237.604L180.275 238.717L180.358 239.052Z" fill="#FFB7B7"/>
<path d="M219.978 199.442C219.557 200.118 219.127 200.791 218.694 201.458C217.889 202.699 217.062 203.923 216.214 205.127C216.214 205.13 216.21 205.13 216.207 205.134C215.713 205.592 215.166 205.991 214.579 206.323C214.554 206.341 214.526 206.354 214.502 206.369C214.069 206.608 213.609 206.793 213.131 206.919C212.959 206.962 212.784 207.005 212.612 207.048C211.991 207.196 211.376 207.322 210.764 207.432C209.677 207.626 208.601 207.764 207.531 207.85C207.445 207.86 207.359 207.866 207.273 207.872C202.875 208.195 198.594 207.675 194.125 206.824C191.919 206.406 189.666 205.905 187.333 205.386C186.571 205.213 185.806 205.044 185.031 204.875C184.973 204.863 184.911 204.848 184.85 204.835C183.744 204.593 182.619 204.353 181.466 204.116C180.016 203.818 178.519 203.529 176.964 203.256L177.074 205.447C177.166 207.133 177.517 208.794 178.113 210.374C178.777 212.316 179.303 213.853 178.193 217.052L177.658 218.601C177.936 219.37 178.031 220.193 177.936 221.005C177.842 221.817 177.561 222.597 177.114 223.282L177.007 223.445L181.466 234.727L181.755 235.458H179.472L176.663 235.461H171.902L165.033 221.681L164.704 221.023V220.989L165.414 194.506C165.423 194.272 165.442 194.036 165.472 193.802C165.598 192.74 165.933 191.714 166.459 190.783C166.985 189.852 167.691 189.036 168.537 188.381C169.346 187.748 170.274 187.282 171.265 187.011C172.257 186.74 173.292 186.668 174.311 186.801L176.663 187.105L181.466 187.726L184.85 188.166L184.918 188.175L194.897 189.466L195.613 186.546L195.745 186.497L199.946 184.957L214.477 179.631L214.514 179.619L215.47 179.268L215.584 179.453C215.617 179.508 215.651 179.563 215.682 179.619C216.627 181.312 217.396 183.098 217.978 184.948C218.956 187.97 219.762 191.045 220.39 194.159C220.418 194.294 220.443 194.417 220.464 194.527L220.473 194.561C220.482 194.613 220.489 194.647 220.492 194.656C220.827 196.052 220.593 197.754 219.978 199.442Z" fill="#2F2E41"/>
<path d="M220.592 189.682C220.546 189.485 220.487 189.285 220.426 189.092C219.938 187.625 219.369 186.187 218.723 184.783C217.998 183.185 217.128 181.473 216.092 179.62C215.591 178.722 215.053 177.789 214.476 176.82C214.187 176.334 213.887 175.84 213.575 175.335C213.563 175.312 213.55 175.29 213.535 175.268L213.446 175.12L199.069 177.044L193.715 177.76L193.396 180.428L193.319 181.089C193.316 181.089 193.316 181.089 193.319 181.092L193.104 182.893V182.896L192.818 185.275L192.793 185.272L184.849 184.242L176.661 183.182L172.263 182.613C171.244 182.48 170.209 182.552 169.217 182.823C168.226 183.094 167.298 183.56 166.488 184.193C165.643 184.848 164.937 185.665 164.411 186.596C163.885 187.526 163.55 188.553 163.424 189.614C163.397 189.829 163.378 190.051 163.369 190.269L159.22 200.101C156.737 205.98 155.156 212.201 154.53 218.553L151.487 228.28L151.921 228.32L158.369 228.919L160.071 229.079L163.821 223.606C164.248 222.982 164.654 222.339 165.032 221.682C165.654 220.608 166.207 219.495 166.688 218.35L174.799 199.05C175.426 199.157 176.046 199.26 176.661 199.357C179.504 199.818 182.233 200.194 184.849 200.485C193.353 201.434 200.716 201.508 207.272 200.703C209.113 200.479 210.892 200.184 212.61 199.818C213.24 199.686 213.862 199.543 214.476 199.391C214.62 199.357 214.762 199.323 214.903 199.286C216.173 198.959 217.341 198.318 218.299 197.422C219.258 196.527 219.976 195.405 220.389 194.16C220.882 192.717 220.952 191.163 220.592 189.682Z" fill="#2F2E41"/>
<path d="M153.644 239.015L149.117 236.846L148.407 236.504L147.273 239.289L139.356 241.032C138.965 241.117 138.611 241.326 138.347 241.627C138.082 241.928 137.921 242.306 137.887 242.706C137.852 243.105 137.947 243.505 138.156 243.846C138.365 244.188 138.678 244.454 139.049 244.606L146.784 247.762L149.24 245.552L148.638 248.518L151.551 249.708L154.744 239.544L153.644 239.015Z" fill="#2F2E41"/>
<path d="M181.466 234.727L181.755 235.458H181.466V234.727Z" fill="#2F2E41"/>
<path d="M179.889 235.615L175.146 237.258L174.401 237.515L175.555 240.292L171.155 247.101C170.937 247.437 170.833 247.834 170.857 248.234C170.881 248.634 171.032 249.016 171.289 249.324C171.545 249.632 171.894 249.85 172.283 249.945C172.672 250.041 173.082 250.01 173.452 249.857L181.169 246.657L181.359 243.359L183.018 245.89L185.925 244.685L181.043 235.216L179.889 235.615Z" fill="#2F2E41"/>
<path d="M219.409 194.135C219.127 194.134 218.85 194.065 218.6 193.934L193.569 180.854L193.279 179.67L192.734 175.923L192.742 175.888L195.122 164.913C195.079 164.818 194.988 164.664 194.885 164.489C193.822 162.689 190.587 157.208 196.76 149.662L207.598 137.026L216.9 136.626L217.006 136.76C219.493 139.882 221.17 143.57 221.889 147.496C222.607 151.422 222.345 155.465 221.124 159.265L220.156 176.758L221.194 180.29C221.802 182.366 221.701 184.585 220.909 186.598L221.147 192.318C221.156 192.553 221.118 192.787 221.035 193.006C220.952 193.225 220.826 193.426 220.663 193.595C220.501 193.765 220.306 193.9 220.091 193.993C219.875 194.085 219.643 194.134 219.409 194.135L219.409 194.135Z" fill="#3F3D56"/>
<path d="M197.695 208.561C198.119 208.31 198.483 207.97 198.762 207.563C199.04 207.157 199.226 206.694 199.306 206.208C199.386 205.723 199.359 205.225 199.226 204.751C199.093 204.276 198.858 203.837 198.537 203.464L204.555 193.114L198.343 193.464L193.58 203.239C192.989 203.82 192.631 204.597 192.574 205.425C192.518 206.252 192.767 207.071 193.274 207.727C193.781 208.383 194.511 208.831 195.326 208.984C196.141 209.138 196.984 208.987 197.695 208.561L197.695 208.561Z" fill="#FFB7B7"/>
<path d="M200.124 200.951L194.562 196.62L204.668 177.037L200.881 152.099C200.694 150.866 200.781 149.607 201.135 148.412C201.489 147.216 202.102 146.113 202.93 145.181C203.758 144.249 204.781 143.511 205.927 143.019C207.073 142.527 208.313 142.293 209.559 142.334C211.809 142.411 213.938 143.377 215.477 145.021C217.016 146.665 217.84 148.852 217.768 151.103L216.833 179.499L200.124 200.951Z" fill="#3F3D56"/>
<path d="M201.632 131.776V122.572C201.63 119.3 202.927 116.162 205.239 113.848C207.55 111.533 210.687 110.232 213.958 110.23C217.229 110.228 220.367 111.525 222.681 113.837C224.996 116.148 226.297 119.285 226.299 122.556V122.572C228.473 127.102 227.113 129.255 226.299 131.776C226.299 132.215 226.124 132.636 225.814 132.946C225.503 133.257 225.082 133.431 224.643 133.432H203.289C202.85 133.432 202.429 133.257 202.118 132.947C201.807 132.636 201.633 132.215 201.632 131.776Z" fill="#2F2E41"/>
<path d="M209.921 132.834C215.02 132.834 219.153 128.701 219.153 123.602C219.153 118.503 215.02 114.369 209.921 114.369C204.822 114.369 200.688 118.503 200.688 123.602C200.688 128.701 204.822 132.834 209.921 132.834Z" fill="#FFB7B7"/>
<path d="M219.584 126.022C219.5 126.009 219.416 125.991 219.333 125.978C217.892 125.723 216.452 125.471 215.017 125.212L214.884 121.957L213.145 124.873C209.177 126.189 205.464 125.445 201.972 123.802C200.82 123.256 199.702 122.639 198.625 121.957C198.918 120.157 199.61 118.446 200.651 116.947C201.691 115.449 203.053 114.203 204.636 113.299C204.769 113.224 204.896 113.158 205.028 113.092C205.029 113.092 205.03 113.092 205.03 113.092C205.031 113.091 205.031 113.091 205.032 113.091C205.032 113.09 205.032 113.09 205.032 113.089C205.033 113.089 205.033 113.088 205.033 113.087C205.257 112.982 205.486 112.88 205.715 112.788C207.508 112.087 209.463 111.91 211.353 112.276C213.243 112.643 214.99 113.538 216.391 114.858C219.209 117.549 220.478 121.992 219.584 126.022Z" fill="#2F2E41"/>
</svg>
