<svg width="18" height="16" viewBox="0 0 18 16" fill="none" xmlns="http://www.w3.org/2000/svg">
<g filter="url(#filter0_i_438_906)">
<path d="M17.428 3.27888C17.1509 2.63724 16.7513 2.0558 16.2517 1.56709C15.7517 1.07693 15.1621 0.6874 14.5151 0.419693C13.8442 0.140996 13.1246 -0.0016576 12.3981 1.45314e-05C11.3789 1.45314e-05 10.3845 0.279111 9.52029 0.806293C9.31356 0.932404 9.11715 1.07092 8.93109 1.22184C8.74503 1.07092 8.54862 0.932404 8.34189 0.806293C7.47772 0.279111 6.48331 1.45314e-05 5.46409 1.45314e-05C4.73017 1.45314e-05 4.01899 0.140597 3.34709 0.419693C2.69793 0.688453 2.11286 1.07505 1.61049 1.56709C1.11018 2.05524 0.710513 2.63683 0.43415 3.27888C0.146784 3.94665 0 4.65576 0 5.38554C0 6.07398 0.140582 6.79136 0.419679 7.52115C0.653293 8.13103 0.988209 8.76365 1.41616 9.40247C2.09426 10.4134 3.02665 11.4678 4.18438 12.5366C6.10291 14.3084 8.00284 15.5323 8.08346 15.5819L8.57343 15.8961C8.79051 16.0346 9.0696 16.0346 9.28668 15.8961L9.77665 15.5819C9.85728 15.5302 11.7551 14.3084 13.6757 12.5366C14.8335 11.4678 15.7659 10.4134 16.444 9.40247C16.8719 8.76365 17.2089 8.13103 17.4404 7.52115C17.7195 6.79136 17.8601 6.07398 17.8601 5.38554C17.8622 4.65576 17.7154 3.94665 17.428 3.27888Z" fill="#B81D13"/>
</g>
<defs>
<filter id="filter0_i_438_906" x="0" y="0" width="20.8604" height="19" filterUnits="userSpaceOnUse" color-interpolation-filters="sRGB">
<feFlood flood-opacity="0" result="BackgroundImageFix"/>
<feBlend mode="normal" in="SourceGraphic" in2="BackgroundImageFix" result="shape"/>
<feColorMatrix in="SourceAlpha" type="matrix" values="0 0 0 0 0 0 0 0 0 0 0 0 0 0 0 0 0 0 127 0" result="hardAlpha"/>
<feOffset dx="3" dy="3"/>
<feGaussianBlur stdDeviation="1.5"/>
<feComposite in2="hardAlpha" operator="arithmetic" k2="-1" k3="1"/>
<feColorMatrix type="matrix" values="0 0 0 0 1 0 0 0 0 1 0 0 0 0 1 0 0 0 0.25 0"/>
<feBlend mode="normal" in2="shape" result="effect1_innerShadow_438_906"/>
</filter>
</defs>
</svg>
